<svg width="15" height="17" viewBox="0 0 15 17" fill="none" xmlns="http://www.w3.org/2000/svg">
<path d="M9.91249 14.5C9.26884 15.5 8.46499 16 7.5 16C6.53501 16 5.73116 15.5 5.08751 14.5M12.407 13H2.593C2.31107 13.0001 2.03415 12.9227 1.79056 12.7756C1.54697 12.6285 1.34543 12.417 1.20656 12.1627C1.06769 11.9085 0.996451 11.6206 1.00014 11.3284C1.00382 11.0363 1.08229 10.7504 1.22753 10.5C2.17461 8.86426 2.67493 7.99257 2.67503 6.085V5C2.67503 3.93913 3.0817 2.92172 3.80559 2.17157C4.52947 1.42143 5.51127 1 6.53501 1H8.46499C9.48873 1 10.4705 1.42143 11.1944 2.17157C11.9183 2.92172 12.325 3.93913 12.325 5V6.085C12.325 7.992 12.8248 8.865 13.7725 10.5C13.9177 10.7504 13.9962 11.0363 13.9999 11.3284C14.0035 11.6206 13.9323 11.9085 13.7934 12.1627C13.6546 12.417 13.453 12.6285 13.2094 12.7756C12.9659 12.9227 12.6889 13.0001 12.407 13Z" stroke="white" stroke-width="1.2" stroke-linecap="round" stroke-linejoin="round"/>
</svg>
