<svg width="22" height="22" viewBox="0 0 22 22" fill="none" xmlns="http://www.w3.org/2000/svg">
<mask id="mask0_204_5619" style="mask-type:alpha" maskUnits="userSpaceOnUse" x="0" y="0" width="22" height="22">
<circle cx="11" cy="11" r="11" fill="#B8B8B8"/>
</mask>
<g mask="url(#mask0_204_5619)">
<g clip-path="url(#clip0_204_5619)">
<path fill-rule="evenodd" clip-rule="evenodd" d="M-3.38477 -0.564087H25.9486V22H-3.38477V-0.564087Z" fill="black"/>
<path fill-rule="evenodd" clip-rule="evenodd" d="M16.1719 -0.564087H25.9481V22H16.1719V-0.564087Z" fill="#009900"/>
<path fill-rule="evenodd" clip-rule="evenodd" d="M6.3916 -0.564087H16.1724V22H6.3916V-0.564087Z" fill="#BF0000"/>
<path fill-rule="evenodd" clip-rule="evenodd" d="M12.2341 12.0074H12.6387C12.6387 12.1674 12.7361 12.3374 12.858 12.4323H12.0781C12.2 12.3224 12.2341 12.1824 12.2341 12.0074Z" fill="white" stroke="#BD6B00" stroke-width="0.53173"/>
<path fill-rule="evenodd" clip-rule="evenodd" d="M9.66113 9.64275L9.88534 9.8927L12.6636 9.9027L12.8879 9.65274L12.1762 9.63775L11.835 9.38779H10.714L10.3923 9.64275H9.66113Z" fill="white"/>
<path fill-rule="evenodd" clip-rule="evenodd" d="M10.7967 9.35285H11.7569C11.8836 9.28287 11.9275 9.0579 11.9275 8.93292C11.9275 8.56299 11.6692 8.38302 11.4157 8.37302C11.3767 8.37302 11.3328 8.34302 11.3231 8.30803C11.2987 8.22804 11.3036 8.17305 11.2743 8.17805C11.2548 8.17805 11.2597 8.22804 11.2402 8.29803C11.2256 8.33802 11.1866 8.37302 11.1427 8.37802C10.8308 8.39301 10.6261 8.62797 10.6309 8.93292C10.6358 9.13289 10.6602 9.25287 10.7967 9.35285Z" fill="white" stroke="#BD6B00" stroke-width="0.53173"/>
<path fill-rule="evenodd" clip-rule="evenodd" d="M9.22167 12.8572H13.3306L12.965 12.5523H9.58236L9.2168 12.8572H9.22167Z" fill="white"/>
<path fill-rule="evenodd" clip-rule="evenodd" d="M11.1088 11.7024L11.1819 11.9324H11.3525L11.216 11.7024H11.1088ZM11.0113 11.9324L11.06 12.1623H11.255L11.1819 11.9324H11.0113ZM11.3525 11.9324L11.489 12.1623H11.7765L11.5523 11.9324H11.3525ZM9.6709 12.4523C9.822 12.3073 9.91948 12.1873 9.91948 12.0123H10.2899C10.2899 12.1123 10.324 12.1673 10.3777 12.1623H10.753V11.9374H10.48V10.7026C10.4703 10.2626 10.9967 10.0127 11.2111 10.0127H9.92923V9.97269H12.6247V10.0127H11.333C11.7181 10.0127 12.0885 10.3876 12.0934 10.7026V11.0525H12.0446L12.0398 10.7076C12.0398 10.3626 11.6157 10.0427 11.2745 10.0527C10.9821 10.0577 10.5239 10.3476 10.5288 10.7026V10.8125L11.2258 10.8175L11.2209 10.9425L11.3281 11.0125L11.5475 11.0825V11.2725L11.7034 11.3175V11.5024L11.8887 11.5874V11.7774L12.0105 11.8524L12.0056 12.0473L12.1665 12.1623H11.7863L12.0251 12.4373H11.6693L11.4938 12.1623H11.2648L11.3671 12.4323H11.1234L11.06 12.1623H10.7578V12.4523H9.67577H9.6709ZM10.753 11.7024V11.9324H11.0113L10.9626 11.7024H10.7481H10.753Z" fill="white" stroke="#BD6B00" stroke-width="0.53173"/>
<path fill-rule="evenodd" clip-rule="evenodd" d="M10.7676 11.3025H10.9284V11.6824H10.7676V11.3025Z" stroke="#BD6B00" stroke-width="0.53173"/>
<path fill-rule="evenodd" clip-rule="evenodd" d="M10.5381 11.7074H10.6941V11.4275C10.6941 11.3075 10.8013 11.1825 10.85 11.1775C10.9085 11.1775 10.9914 11.2925 10.9963 11.4175V11.7074H11.162V10.9875H10.5381V11.7074V11.7074ZM11.7859 11.8724H11.9808V12.0324H11.7859V11.8724ZM11.6689 11.6075H11.8639V11.7624H11.6689V11.6075ZM11.4788 11.3375H11.6738V11.4925H11.4788V11.3375ZM11.318 11.1125H11.5129V11.2675H11.318V11.1125Z" stroke="#BD6B00" stroke-width="0.53173"/>
<path fill-rule="evenodd" clip-rule="evenodd" d="M11.1865 11.7074L11.3912 11.7174L11.7471 12.0374V11.8474L11.6252 11.7574V11.6074L11.4497 11.5075V11.3425L11.2791 11.2825V11.0675L11.1963 10.9926L11.1914 11.7124L11.1865 11.7074Z" stroke="#BD6B00" stroke-width="0.53173"/>
<path fill-rule="evenodd" clip-rule="evenodd" d="M12.0342 11.2325H12.0829V11.5875H12.0342V11.2325Z" fill="white" stroke="#BD6B00" stroke-width="0.53173"/>
<path fill-rule="evenodd" clip-rule="evenodd" d="M9.20281 10.0427C9.14432 9.94276 9.0712 10.1827 8.82262 10.3577C8.71051 10.4377 8.62765 10.6526 8.62765 10.7926C8.62765 10.8926 8.6374 10.9876 8.62765 11.0826C8.62278 11.1376 8.55941 11.2725 8.60328 11.3075C8.71051 11.3875 8.85186 11.5775 8.91523 11.6425C8.97372 11.6925 9.02246 11.3775 9.06145 11.2426C9.1102 11.0926 9.0907 10.9076 9.21743 10.7726C9.30516 10.6726 9.52938 10.5827 9.50988 10.5427L9.20281 10.0427Z" fill="white" stroke="#BD6B00" stroke-width="0.53173"/>
<path fill-rule="evenodd" clip-rule="evenodd" d="M9.18764 10.8126C9.16829 10.7655 9.14198 10.7216 9.10966 10.6827C9.07857 10.6431 9.03836 10.6122 8.99267 10.5927C8.94777 10.579 8.90734 10.5531 8.87569 10.5177C8.85705 10.4962 8.84367 10.4705 8.8367 10.4427C8.83115 10.4096 8.83115 10.3758 8.8367 10.3427L8.82208 10.3577C8.70997 10.4377 8.62711 10.6527 8.62711 10.7926C8.6256 10.831 8.6256 10.8693 8.62711 10.9076C8.63686 10.9326 8.64173 10.9576 8.65635 10.9726L8.70997 11.0126L8.84157 11.0476C8.89085 11.0703 8.93425 11.1046 8.9683 11.1476C9.00378 11.1861 9.03336 11.2299 9.05604 11.2776L9.06579 11.2376C9.10478 11.1026 9.09991 10.9426 9.19252 10.8126H9.18764Z" fill="#BF0000" stroke="#BD6B00" stroke-width="0.53173"/>
<path d="M8.61816 10.8876C8.65716 11.0376 8.75464 11.0176 8.84238 11.0476C8.93011 11.0826 9.02272 11.1976 9.06172 11.2876M8.8375 10.3377C8.81313 10.5027 8.90574 10.5627 8.99348 10.5927C9.08121 10.6277 9.15433 10.7226 9.18845 10.8126L8.8375 10.3377Z" stroke="#BD6B00" stroke-width="0.53173"/>
<path fill-rule="evenodd" clip-rule="evenodd" d="M9.12012 9.94272L9.16886 9.91272L10.0316 11.4075L9.98284 11.4375L9.12012 9.93772V9.94272Z" fill="white" stroke="#BD6B00" stroke-width="0.53173"/>
<path fill-rule="evenodd" clip-rule="evenodd" d="M9.21255 9.88278C9.21255 9.9093 9.20228 9.93473 9.18399 9.95348C9.16571 9.97223 9.14092 9.98277 9.11506 9.98277C9.08921 9.98277 9.06441 9.97223 9.04613 9.95348C9.02785 9.93473 9.01758 9.9093 9.01758 9.88278C9.01758 9.85626 9.02785 9.83083 9.04613 9.81208C9.06441 9.79333 9.08921 9.7828 9.11506 9.7828C9.14092 9.7828 9.16571 9.79333 9.18399 9.81208C9.20228 9.83083 9.21255 9.85626 9.21255 9.88278ZM9.95342 8.68298H10.3044V8.76297H9.95342V8.68298ZM9.95342 8.83796H10.3044V9.52784H9.95342V8.83796ZM9.93393 8.588H10.3239C10.3336 8.45302 10.202 8.30804 10.1289 8.30804C10.0509 8.31304 9.92905 8.45802 9.93393 8.588Z" fill="white" stroke="#BD6B00" stroke-width="0.53173"/>
<path fill-rule="evenodd" clip-rule="evenodd" d="M10.9234 8.50799C10.8503 8.53798 10.7918 8.62297 10.7577 8.72295C10.7236 8.82294 10.709 8.93792 10.7285 9.0279C10.7285 9.0629 10.7431 9.08289 10.7528 9.10289C10.7626 9.11789 10.7723 9.12789 10.7821 9.12789C10.7967 9.12789 10.8113 9.12789 10.8162 9.11289L10.8259 9.0729C10.8211 8.97291 10.8211 8.88293 10.8406 8.80294C10.8622 8.71411 10.9141 8.63613 10.9868 8.58298C11.0014 8.57298 11.0063 8.55798 11.0112 8.54798C11.011 8.53479 11.0057 8.52222 10.9965 8.51299C10.977 8.49799 10.9478 8.49299 10.9234 8.50799ZM10.9332 8.52798C10.9527 8.51799 10.9722 8.52798 10.9819 8.53298L10.9868 8.54298C10.9868 8.54798 10.9868 8.55298 10.9722 8.56298C10.8973 8.6193 10.8439 8.70061 10.8211 8.79294C10.8008 8.88475 10.7959 8.9794 10.8064 9.0729C10.8064 9.08371 10.803 9.09424 10.7967 9.10289C10.7967 9.10289 10.7967 9.10789 10.7869 9.10289C10.7869 9.10289 10.7772 9.10289 10.7675 9.08789C10.7578 9.06912 10.7512 9.04885 10.748 9.0279C10.7333 8.93792 10.748 8.82793 10.7821 8.72795C10.8162 8.63797 10.8698 8.55798 10.9283 8.52798H10.9332Z" fill="#BD6B00"/>
<path fill-rule="evenodd" clip-rule="evenodd" d="M11.0501 8.60298C10.977 8.63797 10.9282 8.71796 10.9039 8.81294C10.878 8.90897 10.873 9.00967 10.8892 9.10789C10.899 9.17288 10.938 9.20788 10.9672 9.20788C10.9818 9.21288 10.9965 9.20788 11.0062 9.19288C11.016 9.17788 11.0208 9.16288 11.016 9.14289C10.9965 9.0629 10.9916 8.97292 11.0013 8.88793C11.016 8.80295 11.0501 8.72796 11.1086 8.68297C11.1232 8.66797 11.1329 8.65797 11.1329 8.64297C11.1334 8.63756 11.1328 8.6321 11.1311 8.62695C11.1294 8.62179 11.1267 8.61704 11.1232 8.61298C11.1037 8.59798 11.0744 8.59298 11.0501 8.60298ZM11.0598 8.62798C11.0793 8.61798 11.0988 8.62298 11.1086 8.62798L11.1134 8.64297L11.0988 8.66297C11.0661 8.68987 11.0389 8.72316 11.0188 8.76092C10.9987 8.79868 10.9862 8.84015 10.9818 8.88293C10.9672 8.97292 10.977 9.0679 10.9916 9.14289C10.9965 9.16288 10.9916 9.17288 10.9916 9.18288L10.9672 9.18788C10.9526 9.18788 10.9185 9.16288 10.9087 9.10289C10.8941 9.01791 10.899 8.90793 10.9233 8.81794C10.9477 8.72796 10.9965 8.65297 11.0598 8.62798Z" fill="#BD6B00"/>
<path fill-rule="evenodd" clip-rule="evenodd" d="M9.93356 10.0877H10.3235V10.6376H9.93356V10.0877ZM9.95793 10.9576H10.3332V11.0776H9.95793V10.9576ZM9.94818 11.1626H10.3381V11.5975H9.94818V11.1626ZM9.91894 11.6875H10.343V11.9324H9.91894V11.6875ZM9.97255 10.8576H10.3137L10.382 10.7376H9.91406L9.97255 10.8576ZM10.4307 10.4277L10.4356 10.1277H10.6696C10.569 10.208 10.4874 10.3106 10.4307 10.4277Z" fill="white" stroke="#BD6B00" stroke-width="0.53173"/>
<path fill-rule="evenodd" clip-rule="evenodd" d="M9.99707 10.5526C9.99707 10.6176 10.0702 10.5926 10.0702 10.5576V10.2777C10.0702 10.2277 10.1872 10.2377 10.1872 10.2727V10.5726C10.1872 10.6226 10.27 10.6176 10.2652 10.5726V10.2227C10.2652 10.1127 9.99707 10.1177 9.99707 10.2177V10.5526ZM9.99707 11.2175H10.2749V11.5675H9.99707V11.2175Z" stroke="#BD6B00" stroke-width="0.53173"/>
<path fill-rule="evenodd" clip-rule="evenodd" d="M10.1728 11.3675H10.2703V11.4175H10.1728V11.3675ZM10.0022 11.3675H10.0997V11.4175H10.0022V11.3675ZM10.0997 11.2176H10.1728V11.3675H10.0997V11.2176ZM10.0997 11.4175H10.1728V11.5725H10.0997V11.4175ZM8.55457 7.66814C8.57407 7.94309 8.48633 8.09807 8.34498 8.07307C8.30599 7.92309 8.39372 7.81811 8.55457 7.66814ZM8.23775 8.28303C8.11102 8.21805 8.20363 7.70813 8.25237 7.49316C8.28649 7.76812 8.34986 8.15806 8.23775 8.28303Z" fill="white" stroke="#BD6B00" stroke-width="0.53173"/>
<path fill-rule="evenodd" clip-rule="evenodd" d="M8.28173 8.30803C8.49619 8.38302 8.67166 8.14806 8.72528 7.8731C8.54981 8.12306 8.26223 8.12306 8.2866 8.30803H8.28173ZM8.12088 8.56299C7.95516 8.518 8.05264 7.97809 8.08676 7.76312C8.12088 7.98809 8.23786 8.488 8.12088 8.56299ZM8.17937 8.54799C8.18912 8.36302 8.36946 8.41301 8.49619 8.31303C8.47182 8.41301 8.39871 8.57299 8.17937 8.54799ZM7.97466 8.79795C7.80893 8.74796 7.90642 8.16806 7.89667 7.9281C7.94541 8.13806 8.10138 8.74296 7.97466 8.79795ZM8.05264 8.77295C8.18912 8.81795 8.36946 8.72296 8.38409 8.55799C8.26223 8.64298 8.07701 8.57799 8.05264 8.77295Z" fill="white" stroke="#BD6B00" stroke-width="0.53173"/>
<path fill-rule="evenodd" clip-rule="evenodd" d="M7.84771 9.05294C7.69174 9.06794 7.75998 8.57302 7.75998 8.1131C7.81847 8.54303 7.97932 8.93796 7.84771 9.05294Z" fill="white" stroke="#BD6B00" stroke-width="0.53173"/>
<path fill-rule="evenodd" clip-rule="evenodd" d="M7.90625 9.03291C8.01348 9.0829 8.20357 8.99792 8.25719 8.81295C8.06222 8.89793 7.9355 8.81295 7.90625 9.03291ZM9.15404 7.9231C9.12479 8.16806 9.02731 8.30803 8.88596 8.28304C8.84697 8.13306 8.96395 8.03308 9.15404 7.9231ZM8.77385 8.54299C9.01269 8.57799 9.09555 8.39302 9.26127 8.14806C9.03218 8.31803 8.7641 8.34803 8.77385 8.54799V8.54299Z" fill="white" stroke="#BD6B00" stroke-width="0.53173"/>
<path fill-rule="evenodd" clip-rule="evenodd" d="M8.7001 8.518C8.57337 8.35803 8.7001 8.15307 8.79758 7.98309C8.77809 8.23805 8.86095 8.38303 8.7001 8.518ZM8.65136 8.78296C8.63186 8.62299 8.89507 8.58799 9.01205 8.50301C8.96818 8.59299 8.91456 8.83795 8.64648 8.78296H8.65136Z" fill="white" stroke="#BD6B00" stroke-width="0.53173"/>
<path fill-rule="evenodd" clip-rule="evenodd" d="M8.59292 8.78296C8.41257 8.76297 8.48568 8.44802 8.61729 8.27805C8.56367 8.51801 8.71477 8.68298 8.59292 8.78296Z" fill="white" stroke="#BD6B00" stroke-width="0.53173"/>
<path fill-rule="evenodd" clip-rule="evenodd" d="M8.45715 9.04787C8.25244 8.94789 8.38404 8.68793 8.45715 8.53296C8.42791 8.73792 8.59363 8.8929 8.45715 9.04287V9.04787Z" fill="white" stroke="#BD6B00" stroke-width="0.53173"/>
<path fill-rule="evenodd" clip-rule="evenodd" d="M8.49603 9.01792C8.60326 9.1679 8.81285 8.97793 8.85672 8.75797C8.67637 8.91294 8.5399 8.88794 8.49603 9.02292V9.01792ZM8.02811 10.0328C8.00861 9.81779 8.16458 9.43285 8.05248 9.22289C8.03785 9.19289 8.0866 9.1179 8.12072 9.1629C8.16946 9.23788 8.2182 9.44785 8.24257 9.36786C8.26207 9.28288 8.26694 9.1379 8.34005 9.10791C8.3888 9.09291 8.45216 9.07791 8.43266 9.1579C8.41317 9.22789 8.37417 9.32787 8.41804 9.33287C8.44241 9.33287 8.51553 9.23289 8.57889 9.18289C8.62763 9.1429 8.70562 9.21289 8.62763 9.27288C8.39367 9.47285 8.16458 9.56783 8.02811 10.0328ZM7.60405 13.2572C7.57481 13.2572 7.54069 13.2422 7.5748 13.2872C7.85263 13.6371 7.93062 13.7371 8.33518 13.6871C8.73974 13.6321 8.83722 13.5172 9.1248 13.3522C9.20806 13.3073 9.29917 13.2797 9.39287 13.2711C9.48658 13.2626 9.58101 13.2731 9.67071 13.3022C9.7487 13.3272 9.79744 13.3272 9.73895 13.2672C9.68046 13.2122 9.61709 13.1322 9.54398 13.0772C9.36215 12.9525 9.14054 12.9042 8.92496 12.9423C8.63251 12.9923 8.38392 13.1872 8.0866 13.2622C7.92736 13.2952 7.76329 13.2952 7.60405 13.2622V13.2572ZM9.93392 13.8821C9.98266 13.8921 10.0168 13.9921 10.046 13.9271C10.085 13.8121 10.0558 13.7271 10.007 13.7321C9.94854 13.7471 9.85593 13.8821 9.93392 13.8821Z" fill="white" stroke="#BD6B00" stroke-width="0.53173"/>
<path fill-rule="evenodd" clip-rule="evenodd" d="M7.41369 9.86781C7.3552 9.79782 7.36983 9.77783 7.46244 9.77283C7.53068 9.77283 7.66715 9.82282 7.72077 9.77783C7.76951 9.74283 7.74514 9.59286 7.76951 9.52787C7.77926 9.48287 7.80363 9.42788 7.867 9.51787C8.04247 9.80782 8.25693 10.1578 8.35442 10.4977C8.40316 10.6877 8.35442 10.9876 8.18869 11.1876C8.18869 11.0176 8.1302 10.9026 8.05709 10.7577C7.95961 10.5727 7.61354 10.0578 7.41369 9.86281V9.86781Z" fill="white"/>
<path fill-rule="evenodd" clip-rule="evenodd" d="M8.14027 11.3875C8.33524 11.3875 8.36936 11.1225 8.36936 11.0475C8.27188 11.0675 8.10615 11.2325 8.14027 11.3875ZM9.82187 13.9821C9.95835 14.0121 9.95347 13.6721 9.81212 13.5271C9.87548 13.7471 9.71464 13.9471 9.81699 13.9771L9.82187 13.9821ZM9.76338 13.9771C9.77313 14.137 9.37344 13.9571 9.27596 13.8271C9.50992 13.9321 9.75363 13.8471 9.76338 13.9771ZM9.59278 13.7471C9.6074 13.9021 9.25159 13.7621 9.13948 13.6421C9.37832 13.7221 9.57816 13.6171 9.59278 13.7421V13.7471ZM9.65615 13.7671C9.7975 13.8021 9.77313 13.4471 9.63665 13.3272C9.70489 13.5621 9.54891 13.7321 9.65615 13.7671ZM9.50992 13.5521C9.65127 13.5871 9.56841 13.2822 9.46605 13.1622C9.48555 13.3822 9.41731 13.5371 9.5148 13.5521H9.50992ZM9.43681 13.5521C9.45143 13.7121 9.1736 13.5921 9.06637 13.4371C9.30033 13.5121 9.42219 13.4222 9.43681 13.5521ZM9.3637 13.4272C9.45143 13.3622 9.35882 13.1872 9.18335 13.1972C9.20285 13.3022 9.26134 13.4921 9.3637 13.4272ZM10.0461 14.162C10.051 14.322 9.65615 14.242 9.52942 14.072C9.78288 14.122 10.0315 14.032 10.0412 14.162H10.0461ZM8.46684 13.8721C8.48147 14.0321 8.04766 13.8521 7.94043 13.7021C8.16952 13.7821 8.45222 13.7421 8.46684 13.8721ZM8.73005 13.9371C8.82266 13.8721 8.63744 13.7021 8.48634 13.6621C8.50584 13.7671 8.63257 14.0021 8.73005 13.9421V13.9371ZM8.75929 14.052C8.76904 14.197 8.29625 14.117 8.17439 13.9821C8.57895 14.057 8.74467 13.9271 8.75929 14.052Z" fill="white" stroke="#BD6B00" stroke-width="0.53173"/>
<path fill-rule="evenodd" clip-rule="evenodd" d="M8.98338 14.147C9.03212 14.282 8.57882 14.247 8.41797 14.172C8.6763 14.172 8.94438 14.052 8.98338 14.147Z" fill="white" stroke="#BD6B00" stroke-width="0.53173"/>
<path fill-rule="evenodd" clip-rule="evenodd" d="M9.19332 14.247C9.24206 14.367 8.82288 14.367 8.61816 14.297C8.89112 14.297 9.14458 14.127 9.19332 14.247ZM9.50039 14.312C9.57838 14.457 9.12996 14.467 8.9886 14.397C9.24206 14.362 9.43703 14.197 9.50039 14.312ZM8.97886 14.0671C8.8375 14.157 8.84725 13.8871 8.73514 13.7021C8.91062 13.8671 9.07634 13.9821 8.97886 14.0671Z" fill="white" stroke="#BD6B00" stroke-width="0.53173"/>
<path fill-rule="evenodd" clip-rule="evenodd" d="M9.23143 14.1671C9.11445 14.2721 9.01697 13.9021 8.90974 13.6921C9.08521 13.8921 9.33866 14.0771 9.23143 14.1621V14.1671ZM9.56288 14.2671C9.46539 14.387 9.17294 13.9171 9.06571 13.6672C9.22656 13.8621 9.64086 14.1671 9.56288 14.2671ZM9.28017 14.627C9.23143 14.807 8.49056 14.457 8.40282 14.2721C8.83175 14.502 9.28992 14.452 9.28017 14.622V14.627ZM6.90644 10.9376C6.88695 10.9126 6.83821 10.9376 6.84795 10.9926C6.86258 11.0676 6.96981 11.4525 7.15503 11.5825C7.28663 11.6825 7.98364 11.8375 8.29559 11.9074C8.47106 11.9424 8.61241 12.0324 8.72939 12.1724C8.68933 12.0065 8.64052 11.8429 8.58317 11.6825C8.52468 11.5325 8.3687 11.3725 8.20298 11.3675C7.90565 11.3525 7.51572 11.3275 7.22814 11.2026C7.09788 11.1462 6.985 11.0546 6.90157 10.9376H6.90644Z" fill="white" stroke="#BD6B00" stroke-width="0.53173"/>
<path fill-rule="evenodd" clip-rule="evenodd" d="M8.62709 12.4623C8.72457 12.5323 8.82692 12.2774 8.70995 12.0324C8.70507 12.2674 8.52473 12.3474 8.62709 12.4623Z" fill="white" stroke="#BD6B00" stroke-width="0.53173"/>
<path fill-rule="evenodd" clip-rule="evenodd" d="M8.72001 12.6973C8.85161 12.7373 8.89061 12.4973 8.80775 12.3074C8.82237 12.5123 8.59816 12.6373 8.72001 12.6973Z" fill="white" stroke="#BD6B00" stroke-width="0.53173"/>
<path fill-rule="evenodd" clip-rule="evenodd" d="M8.82282 12.8873C8.94955 12.9522 8.99342 12.7073 8.90568 12.5323C8.91543 12.7573 8.72533 12.8273 8.82282 12.8823V12.8873Z" fill="white" stroke="#BD6B00" stroke-width="0.53173"/>
<path fill-rule="evenodd" clip-rule="evenodd" d="M8.76885 12.9023C8.7201 13.0522 8.42765 12.7673 8.37891 12.6123C8.55925 12.7973 8.80297 12.7723 8.76885 12.8973V12.9023Z" fill="white" stroke="#BD6B00" stroke-width="0.53173"/>
<path fill-rule="evenodd" clip-rule="evenodd" d="M8.63679 12.6673C8.5783 12.8173 8.21274 12.4173 8.12988 12.2324C8.31023 12.4173 8.67579 12.5573 8.63679 12.6623V12.6673Z" fill="white" stroke="#BD6B00" stroke-width="0.53173"/>
<path fill-rule="evenodd" clip-rule="evenodd" d="M8.56442 12.4324C8.50593 12.6073 8.11112 12.1424 7.99414 11.9774C8.18911 12.1574 8.60829 12.3074 8.56442 12.4324ZM8.5498 12.2624C8.69603 12.2324 8.54493 12.1124 8.36945 11.9174C8.36458 12.1224 8.39383 12.2674 8.5498 12.2624Z" fill="white" stroke="#BD6B00" stroke-width="0.53173"/>
<path fill-rule="evenodd" clip-rule="evenodd" d="M8.31087 12.1424C8.37423 12.0774 8.25725 12.0474 8.11103 11.8774C8.08666 11.9924 8.2475 12.2024 8.31574 12.1424H8.31087ZM8.99325 12.9023C9.07124 12.9523 9.11998 12.7873 9.02737 12.6423C9.003 12.8023 8.92501 12.8423 8.99325 12.9023ZM7.32628 11.8874C7.16544 11.9874 6.90711 11.5875 6.83887 11.4225C6.98022 11.6125 7.35553 11.7825 7.32628 11.8874Z" fill="white" stroke="#BD6B00" stroke-width="0.53173"/>
<path fill-rule="evenodd" clip-rule="evenodd" d="M7.46791 12.1174C7.3753 12.2174 7.0926 11.9424 6.99512 11.8025C7.14134 11.9374 7.50691 11.9524 7.46791 12.1174Z" fill="white" stroke="#BD6B00" stroke-width="0.53173"/>
<path fill-rule="evenodd" clip-rule="evenodd" d="M7.61819 12.3274C7.58895 12.4674 7.17951 12.1524 7.08203 12.0024C7.2575 12.1774 7.64744 12.1624 7.61819 12.3274Z" fill="white" stroke="#BD6B00" stroke-width="0.53173"/>
<path fill-rule="evenodd" clip-rule="evenodd" d="M7.55481 12.4823C7.49144 12.6073 7.15513 12.2924 7.07227 12.1324C7.28186 12.3124 7.60843 12.3573 7.55968 12.4823H7.55481ZM7.38421 11.8674C7.48657 11.7524 7.4427 11.6975 7.36472 11.5175C7.32572 11.7025 7.26236 11.7774 7.38421 11.8674ZM7.52556 12.0824C7.72053 12.0924 7.52556 11.8524 7.47682 11.6475C7.49632 11.8774 7.42808 12.0624 7.52556 12.0824Z" fill="white" stroke="#BD6B00" stroke-width="0.53173"/>
<path fill-rule="evenodd" clip-rule="evenodd" d="M7.64749 12.2724C7.77909 12.2424 7.74498 12.0474 7.63774 11.8125C7.66211 12.0674 7.52564 12.2124 7.64749 12.2724ZM7.59875 12.6573C7.55001 12.8073 7.16982 12.4574 7.11133 12.3174C7.3063 12.4874 7.63287 12.5424 7.59875 12.6573Z" fill="white" stroke="#BD6B00" stroke-width="0.53173"/>
<path fill-rule="evenodd" clip-rule="evenodd" d="M7.82808 12.8973C7.77447 13.0472 7.37478 12.7373 7.25293 12.5673C7.49177 12.7673 7.85733 12.7473 7.82808 12.8973Z" fill="white" stroke="#BD6B00" stroke-width="0.53173"/>
<path fill-rule="evenodd" clip-rule="evenodd" d="M8.06241 13.1422C7.99904 13.3572 7.57986 13.0122 7.45801 12.8422C7.72121 13.0522 8.09165 12.9922 8.06241 13.1422ZM7.67247 12.5923C7.78458 12.6473 7.82845 12.3223 7.76508 12.0874C7.76508 12.3373 7.536 12.5273 7.6676 12.5873L7.67247 12.5923Z" fill="white" stroke="#BD6B00" stroke-width="0.53173"/>
<path fill-rule="evenodd" clip-rule="evenodd" d="M7.86263 12.8523C7.99911 12.8923 7.96012 12.5373 7.83826 12.3023C7.82364 12.5373 7.72616 12.7523 7.86263 12.8523ZM8.10634 13.0972C8.25257 13.1022 8.15509 12.7923 8.02836 12.6173C8.04785 12.8423 7.97962 13.0672 8.10634 13.0972ZM7.83826 13.2272C7.78952 13.3072 7.68229 13.1622 7.49707 13.0522C7.66279 13.1022 7.85776 13.1522 7.83826 13.2272ZM7.75053 10.5926C7.89675 10.4826 7.78465 10.2827 7.75053 10.0927C7.70179 10.2727 7.58481 10.5126 7.75053 10.5926ZM7.75053 10.8576C7.53119 10.8326 7.56531 10.5526 7.55556 10.3727C7.6238 10.6176 7.79927 10.6576 7.75053 10.8626V10.8576ZM7.77977 10.8226C7.96012 10.8126 7.95037 10.6026 7.96012 10.3927C7.86751 10.5876 7.76515 10.6176 7.77977 10.8226Z" fill="white" stroke="#BD6B00" stroke-width="0.53173"/>
<path fill-rule="evenodd" clip-rule="evenodd" d="M7.77398 11.0826C7.62776 11.0976 7.55952 10.9526 7.53027 10.7326C7.66188 10.9376 7.77886 10.8726 7.77398 11.0826ZM7.82273 11.0676C8.00307 11.0926 7.96895 10.8776 7.96895 10.7177C7.91046 10.8676 7.76424 10.9176 7.82273 11.0676Z" fill="white" stroke="#BD6B00" stroke-width="0.53173"/>
<path fill-rule="evenodd" clip-rule="evenodd" d="M7.54004 10.9776C7.55466 11.1176 7.6424 11.3575 7.78375 11.3025C7.83736 11.1326 7.65702 11.0976 7.54004 10.9776Z" fill="white" stroke="#BD6B00" stroke-width="0.53173"/>
<path fill-rule="evenodd" clip-rule="evenodd" d="M7.8237 11.3175C7.76521 11.1976 7.96992 11.1326 8.00892 10.9726C8.03329 11.2026 8.01379 11.3525 7.8237 11.3225V11.3175ZM7.24367 9.85779C7.35577 9.73781 7.25829 9.53784 7.22417 9.34787C7.17543 9.52784 7.10232 9.7678 7.24367 9.85779ZM7.24367 10.0877C7.0487 10.1127 6.99996 9.70281 6.97559 9.52284C7.04382 9.7678 7.26804 9.87278 7.24367 10.0927V10.0877ZM7.28266 10.0877C7.41914 10.0128 7.38989 9.85279 7.42889 9.7378C7.34115 9.88278 7.25341 9.90278 7.28266 10.0877Z" fill="white" stroke="#BD6B00" stroke-width="0.53173"/>
<path fill-rule="evenodd" clip-rule="evenodd" d="M7.23867 10.3577C7.03883 10.3727 6.91697 9.91779 6.90723 9.73782C6.97059 9.98278 7.26792 10.1128 7.24355 10.3577H7.23867ZM7.28254 10.3477C7.47751 10.3027 7.45314 10.1728 7.42389 9.96779C7.36053 10.1778 7.2533 10.1328 7.28254 10.3477Z" fill="white" stroke="#BD6B00" stroke-width="0.53173"/>
<path fill-rule="evenodd" clip-rule="evenodd" d="M7.23857 10.6176C7.01435 10.6576 7.02898 10.2877 6.84863 10.0227C7.00461 10.2227 7.28731 10.4727 7.23857 10.6176ZM7.28731 10.6026C7.46278 10.6126 7.48227 10.3477 7.47253 10.2377C7.42866 10.3477 7.22882 10.4477 7.29218 10.6076L7.28731 10.6026Z" fill="white" stroke="#BD6B00" stroke-width="0.53173"/>
<path fill-rule="evenodd" clip-rule="evenodd" d="M6.8877 10.3327C6.97056 10.6177 7.09241 10.9026 7.23864 10.8826C7.31175 10.7177 7.09729 10.6977 6.8877 10.3327Z" fill="white" stroke="#BD6B00" stroke-width="0.53173"/>
<path fill-rule="evenodd" clip-rule="evenodd" d="M7.29235 10.8376C7.23386 10.7126 7.43858 10.6526 7.47757 10.4927C7.50194 10.7226 7.48245 10.8726 7.29235 10.8376ZM6.94629 10.6576C7.06814 10.9126 7.12176 11.2076 7.28748 11.1626C7.35084 10.9626 7.10226 10.9226 6.94629 10.6576Z" fill="white" stroke="#BD6B00" stroke-width="0.53173"/>
<path fill-rule="evenodd" clip-rule="evenodd" d="M7.3212 11.1175C7.24808 10.9776 7.4528 10.9326 7.50641 10.7476C7.53078 10.9876 7.50641 11.1625 7.3212 11.1125V11.1175ZM7.67214 9.39283C7.78912 9.42282 7.91584 9.28784 7.87198 9.08288C7.7355 9.11287 7.67701 9.24285 7.67214 9.39283ZM7.28708 9.28784C7.29682 9.34783 7.36994 9.35283 7.34557 9.26785C7.32737 9.21273 7.32737 9.153 7.34557 9.09788C7.36905 9.02311 7.36905 8.94268 7.34557 8.86791C7.32607 8.81792 7.25783 8.84792 7.28708 8.88791C7.31632 8.9329 7.3212 9.02789 7.29682 9.07288C7.26758 9.13787 7.27733 9.22285 7.28708 9.28784ZM8.40326 10.0877C8.35452 10.1527 8.26191 10.1077 8.33502 10.0127C8.39351 9.93774 8.48125 9.87275 8.48125 9.79276C8.491 9.69278 8.54461 9.5428 8.59823 9.48781C8.65185 9.43282 8.71521 9.50781 8.65672 9.5478C8.59336 9.58779 8.54949 9.76776 8.55436 9.83775C8.54949 9.93774 8.45688 10.0127 8.40326 10.0877ZM8.25704 9.97273C8.2083 10.0427 8.14006 9.99773 8.17905 9.88774C8.21317 9.81276 8.21804 9.71277 8.25704 9.65778C8.31553 9.5728 8.40326 9.50281 8.45688 9.44782C8.51537 9.39783 8.55436 9.44782 8.50562 9.49781C8.44587 9.55902 8.39201 9.62598 8.34477 9.69778C8.27653 9.80776 8.30578 9.89774 8.25704 9.97273ZM7.49179 9.61279C7.48692 9.71277 7.5649 9.73277 7.56003 9.59279C7.56003 9.44282 7.4528 9.30284 7.51129 9.07788C7.55028 8.9679 7.55028 8.76293 7.53078 8.65795C7.51129 8.54797 7.4333 8.61796 7.46742 8.70294C7.49667 8.80292 7.46255 8.98289 7.43818 9.07788C7.36506 9.34783 7.49667 9.47781 7.48692 9.61279H7.49179ZM7.70138 9.06288C7.69163 9.15787 7.61365 9.16286 7.63802 9.03789C7.65751 8.9379 7.65751 8.85792 7.63802 8.77293C7.60877 8.66795 7.61852 8.48798 7.63802 8.41299C7.66239 8.333 7.7355 8.378 7.70626 8.43799C7.67223 8.53248 7.66713 8.63538 7.69163 8.73294C7.72088 8.83292 7.716 8.9729 7.70138 9.06788V9.06288ZM6.94101 10.9176C6.98 10.9626 7.03849 10.9326 6.98975 10.8676C6.94101 10.8176 6.95563 10.8076 6.92639 10.7476C6.89714 10.6776 6.90202 10.6426 6.8679 10.5976C6.83378 10.5476 6.78991 10.5976 6.81915 10.6326C6.85815 10.6826 6.8484 10.7126 6.8679 10.7576C6.91664 10.8326 6.90202 10.8726 6.94101 10.9176ZM7.93534 12.1474C7.99492 12.1811 8.04558 12.2293 8.08295 12.2876C8.12031 12.346 8.14326 12.4128 8.14981 12.4823C8.1549 12.6068 8.18828 12.7283 8.24729 12.8373C8.14981 12.8123 8.10106 12.6523 8.08644 12.4973C8.07182 12.3373 7.98896 12.2723 7.94022 12.1474H7.93534ZM8.18392 12.4423C8.26679 12.5973 8.37889 12.6573 8.38864 12.7723C8.39839 12.9072 8.40814 12.9122 8.44226 13.0422C8.34477 13.0172 8.3204 13.0072 8.29603 12.8073C8.28141 12.6673 8.1693 12.5723 8.18392 12.4423Z" fill="white" stroke="#BD6B00" stroke-width="0.53173"/>
<path fill-rule="evenodd" clip-rule="evenodd" d="M10.7479 13.8821C10.7966 13.9721 10.8454 14.1071 10.9429 14.0821C10.9429 14.0171 10.8405 13.9671 10.7479 13.8821ZM10.8941 13.9121C11.0745 13.9921 11.2353 13.9721 11.2597 14.0921C11.0842 14.1121 11.016 14.0421 10.8892 13.9121H10.8941ZM10.1094 13.2772C10.2305 13.3738 10.3163 13.5094 10.3531 13.6622C10.3924 13.8004 10.4515 13.9318 10.5286 14.0521C10.4018 13.9647 10.3101 13.8334 10.2702 13.6822C10.2361 13.5322 10.1922 13.4172 10.1094 13.2822V13.2772ZM10.2605 13.2772C10.397 13.3872 10.5237 13.5172 10.5627 13.6722C10.6017 13.8171 10.626 13.9271 10.7186 14.0721C10.5724 13.9771 10.5188 13.8371 10.4749 13.6822C10.4408 13.5322 10.3531 13.4222 10.2605 13.2822V13.2772ZM10.7089 13.6422C10.707 13.6297 10.7093 13.6169 10.7156 13.6059C10.7218 13.595 10.7315 13.5866 10.743 13.5822C10.7847 13.5671 10.827 13.5537 10.8697 13.5422C10.9185 13.5272 10.9477 13.5622 10.9477 13.5872V13.6872C10.9477 13.7221 10.938 13.7271 10.9136 13.7321C10.8795 13.7371 10.8308 13.7421 10.7966 13.7671C10.7674 13.7871 10.7381 13.7721 10.7235 13.7421L10.7089 13.6422ZM11.2256 13.6422C11.2256 13.6122 11.2158 13.5872 11.1963 13.5822C11.1593 13.5665 11.1193 13.5596 11.0793 13.5622C11.0306 13.5622 11.0257 13.5722 11.0257 13.5922V13.6972C11.0257 13.7371 11.0257 13.7371 11.0452 13.7471C11.0793 13.7471 11.133 13.7471 11.1671 13.7771C11.1914 13.7921 11.2158 13.7771 11.2207 13.7471L11.2256 13.6422Z" fill="white"/>
<path fill-rule="evenodd" clip-rule="evenodd" d="M12.6728 15.0469C12.6728 15.1069 12.6826 15.1569 12.7216 15.2019C12.4986 15.1328 12.2584 15.1524 12.0489 15.2569C11.9612 15.2969 11.8539 15.2069 11.9563 15.1219C12.1025 15.0069 12.4291 15.0719 12.6728 15.0469ZM9.87015 15.0469C9.8744 15.0978 9.86774 15.1489 9.85066 15.1969C10.0651 15.1119 10.2942 15.1869 10.5135 15.2769C10.6598 15.3419 10.6744 15.2269 10.65 15.1919C10.6231 15.1501 10.587 15.1152 10.5447 15.0901C10.5025 15.0649 10.4551 15.0501 10.4063 15.0469H9.87015ZM10.0554 13.9621C9.99201 13.9371 9.92377 13.9621 9.8604 14.0321C9.65081 14.242 9.40223 14.447 9.20239 14.612C9.12928 14.677 9.05616 14.7969 9.36811 14.9119C9.38273 14.9219 9.61182 15.0119 9.75805 15.0119C9.82141 15.0119 9.82141 15.1019 9.80679 15.1269C9.78242 15.1769 9.80191 15.1969 9.75317 15.2419C9.69956 15.2919 9.75317 15.3469 9.80191 15.3069C9.97739 15.1469 10.2698 15.2519 10.5477 15.3419C10.6159 15.3618 10.7329 15.3568 10.7329 15.2619C10.7329 15.1619 10.806 15.0919 10.8499 15.0869C10.9668 15.1069 11.5323 15.1119 11.7028 15.0919C11.8003 15.0769 11.8101 15.2369 11.8637 15.2919C11.9027 15.3369 12.044 15.3469 12.1464 15.3019C12.3414 15.2119 12.6338 15.2119 12.7557 15.3019C12.8044 15.3369 12.8483 15.3019 12.819 15.2669C12.78 15.2169 12.7849 15.1869 12.7654 15.1469C12.7167 15.0469 12.7557 15.0269 12.8044 15.0219C13.3406 14.9469 13.516 14.7619 13.3503 14.607C13.1359 14.417 12.9019 14.222 12.6972 13.9971C12.6387 13.9371 12.5997 13.9121 12.4876 13.9621C12.0994 14.1426 11.6804 14.2428 11.2544 14.257C10.8418 14.2297 10.4365 14.1317 10.0554 13.9671V13.9621Z" fill="white"/>
<path fill-rule="evenodd" clip-rule="evenodd" d="M12.5803 13.9921L12.5023 14.0121C12.0637 14.172 11.664 14.282 11.2497 14.282C10.8451 14.282 10.4211 14.162 10.036 14.0021C10.0123 13.9937 9.98657 13.9937 9.96289 14.0021C9.93852 14.0071 9.91415 14.0221 9.89952 14.0371C9.71939 14.2218 9.52723 14.3939 9.32437 14.552C9.29025 14.577 9.29512 14.642 9.34874 14.662C9.7533 14.8119 10.1481 15.0869 11.2789 15.0769C12.4243 15.0669 12.8289 14.7969 13.1896 14.672C13.214 14.662 13.2383 14.647 13.253 14.622C13.2564 14.616 13.2587 14.6094 13.2595 14.6025C13.2603 14.5956 13.2598 14.5886 13.2578 14.582C13.2515 14.5663 13.2415 14.5526 13.2286 14.542C13.019 14.367 12.7997 14.227 12.6534 14.0221C12.6388 13.9971 12.6096 13.9921 12.5803 13.9971V13.9921ZM12.5803 14.0171C12.6047 14.0171 12.6291 14.0171 12.6339 14.0321C12.7802 14.247 13.0092 14.382 13.214 14.557L13.2335 14.592C13.2348 14.5951 13.2355 14.5985 13.2355 14.602C13.2355 14.6054 13.2348 14.6088 13.2335 14.612C13.2286 14.627 13.2042 14.642 13.1847 14.647C12.8143 14.7769 12.4195 15.0469 11.2838 15.0569C10.153 15.0669 9.76305 14.7919 9.35849 14.642C9.3195 14.622 9.32437 14.582 9.33899 14.572C9.54371 14.412 9.73867 14.232 9.91414 14.0521C9.92924 14.0376 9.9477 14.0272 9.96776 14.0221H10.0263C10.4115 14.1937 10.825 14.2887 11.2448 14.302C11.6688 14.302 12.0734 14.192 12.5121 14.0371C12.5356 14.0275 12.5602 14.0208 12.5852 14.0171H12.5803Z" fill="#BD6B00"/>
<path fill-rule="evenodd" clip-rule="evenodd" d="M9.80657 6.44831C9.80657 6.37832 9.90405 6.37332 9.8943 6.4683C9.87968 6.58329 10.1136 6.88323 10.1331 7.0682C10.1478 7.19318 10.06 7.29817 9.97716 7.36815C9.92937 7.40287 9.87324 7.42354 9.81483 7.42795C9.75642 7.43235 9.69795 7.42032 9.64572 7.39315C9.60185 7.35316 9.56286 7.22818 9.59698 7.17819C9.60672 7.16319 9.66034 7.36315 9.77732 7.36315C9.93817 7.36315 10.0698 7.23818 10.0698 7.12819C10.0795 6.93823 9.81144 6.63828 9.80657 6.44831ZM10.2696 6.91823C10.2989 6.89823 10.3379 6.98322 10.3086 7.00321C10.2842 7.01821 10.2355 6.93823 10.2696 6.91323V6.91823ZM10.3427 6.74326C10.3281 6.75326 10.3037 6.74326 10.3086 6.73326C10.3555 6.66651 10.4152 6.61036 10.4841 6.56829C10.5036 6.55829 10.5328 6.58828 10.5231 6.60328C10.4733 6.66256 10.4119 6.71028 10.3427 6.74326ZM10.9569 6.24334C10.9715 6.21335 11.0592 6.17835 11.0836 6.15836C11.1031 6.13336 11.1128 6.17835 11.1031 6.19335C11.0885 6.22834 11.0105 6.27834 10.9764 6.28334C10.9617 6.28334 10.9471 6.26334 10.9569 6.24834V6.24334ZM11.1665 6.25834C11.1921 6.19186 11.2341 6.13331 11.2883 6.08837C11.3127 6.07337 11.3517 6.08837 11.3419 6.10836C11.3088 6.17449 11.2603 6.23117 11.2006 6.27334C11.186 6.28833 11.1616 6.27334 11.1665 6.25834ZM10.9861 6.39332C10.9715 6.40332 10.9812 6.42831 10.991 6.43331C11.0202 6.44331 11.0641 6.44331 11.0885 6.43331C11.1177 6.41331 11.1031 6.28833 11.0641 6.35332C11.0349 6.39332 11.0154 6.38332 10.9861 6.39332ZM10.6303 6.67327C10.5669 6.62328 10.6498 6.55329 10.7132 6.60328C10.8448 6.70326 10.5182 7.0932 10.3427 7.27317C10.3086 7.30816 10.2794 7.22318 10.3232 7.17819C10.4501 7.06914 10.5602 6.94105 10.6498 6.79825C10.6693 6.77325 10.6839 6.71826 10.6303 6.67327ZM11.3761 6.34333C11.3809 6.29333 11.2981 6.34333 11.2981 6.27834C11.2981 6.24334 11.3907 6.21835 11.4297 6.25834C11.493 6.32833 11.4443 6.44331 11.3322 6.45331C11.2445 6.45331 11.0885 6.58828 11.1128 6.61328C11.1372 6.64827 11.3761 6.66827 11.5174 6.64827C11.6051 6.63328 11.5856 6.71326 11.4979 6.72326C11.4102 6.73326 11.3419 6.72326 11.2639 6.75326C11.1665 6.77825 11.1275 6.90323 11.0739 6.95322C11.0641 6.96322 11.0349 6.91323 11.0446 6.89323C11.0836 6.83324 11.1421 6.74326 11.2103 6.71326C11.2493 6.69827 11.0934 6.69327 11.0446 6.67827C11.0056 6.66827 11.0154 6.61328 11.03 6.58329C11.0495 6.54329 11.1957 6.38832 11.2591 6.39332C11.3127 6.39332 11.3712 6.37832 11.3761 6.34333ZM11.6198 6.35332C11.649 6.32833 11.6685 6.28833 11.6929 6.26334C11.7075 6.24834 11.7367 6.26334 11.7319 6.30333C11.727 6.33833 11.6831 6.36332 11.6588 6.38832C11.6344 6.40332 11.61 6.36832 11.6246 6.35332H11.6198ZM11.9366 6.23834C11.9805 6.23834 11.9853 6.31833 11.9463 6.32833C11.9171 6.33833 11.8976 6.24334 11.9366 6.23834ZM11.8342 6.4883C11.8342 6.56329 11.8683 6.55829 11.9317 6.55329C11.9951 6.55329 12.0487 6.55329 12.0487 6.4933C12.0487 6.42831 12.0146 6.36832 12 6.41331C11.9951 6.45331 11.9853 6.5233 11.961 6.4933C11.9415 6.4683 11.9512 6.4633 11.9122 6.5033C11.8878 6.52829 11.8878 6.4933 11.8732 6.4733C11.8635 6.45831 11.8342 6.4833 11.8342 6.4933V6.4883ZM11.3858 6.84824C11.3712 6.94322 11.3858 7.0732 11.4297 7.0732C11.4882 7.0732 11.6051 6.87324 11.6636 6.76326C11.6978 6.70327 11.7514 6.69327 11.727 6.75826C11.6929 6.85324 11.6978 7.05821 11.727 7.1182C11.7465 7.14819 11.8732 7.0882 11.8927 7.04321C11.9317 6.95822 11.8976 6.80325 11.9122 6.70826C11.9171 6.64827 11.9756 6.63328 11.9707 6.69327C11.963 6.81809 11.9614 6.94322 11.9658 7.0682C11.9658 7.1182 12.1072 7.18818 12.1267 7.03821C12.1364 6.94822 12.1852 6.85324 12.1267 6.75326C12.0877 6.68827 12.1803 6.69327 12.229 6.78325C12.2632 6.84324 12.1998 6.94322 12.2047 7.01821C12.2047 7.13819 12.1169 7.20818 12.0536 7.20818C11.9951 7.20818 11.9561 7.13319 11.9073 7.13319C11.8586 7.13319 11.8001 7.21818 11.7611 7.21318C11.5856 7.20318 11.6783 6.94822 11.6246 6.94322C11.5661 6.94322 11.5028 7.19318 11.4297 7.18818C11.3614 7.17819 11.2834 6.97822 11.3176 6.89823C11.3419 6.81825 11.3907 6.79825 11.3858 6.84824ZM12.2095 6.44831C12.1267 6.39832 12.2095 6.26334 12.2534 6.30833C12.3314 6.40831 12.4094 6.63328 12.4679 6.65327C12.502 6.66327 12.4971 6.4833 12.5215 6.40332C12.541 6.33833 12.6092 6.35832 12.5995 6.43831C12.5946 6.46331 12.502 6.75826 12.5117 6.76825C12.5767 6.89301 12.6305 7.02352 12.6726 7.15819C12.6872 7.21818 12.619 7.17819 12.6092 7.16819C12.5654 7.0982 12.4922 6.84324 12.4922 6.85824L12.4094 7.24317C12.3996 7.29317 12.3265 7.28317 12.346 7.19318C12.3606 7.12319 12.4581 6.77825 12.4533 6.76326C12.3974 6.63999 12.3139 6.53206 12.2095 6.44831Z" fill="white"/>
<path fill-rule="evenodd" clip-rule="evenodd" d="M12.3562 7.27816C12.3367 7.27816 12.2977 7.32815 12.4147 7.35315C12.5658 7.38314 12.7364 7.32815 12.7851 7.17318C12.8485 6.98821 12.8826 6.81323 12.9167 6.74825C12.9557 6.67326 13.0045 6.67826 12.9655 6.56828C12.9411 6.48329 12.8923 6.50828 12.8826 6.55328C12.8582 6.66826 12.7559 7.0532 12.7218 7.11819C12.6633 7.24816 12.5414 7.29816 12.3562 7.27816Z" fill="white"/>
<path fill-rule="evenodd" clip-rule="evenodd" d="M12.6684 6.66829C12.6489 6.63329 12.61 6.66829 12.6197 6.70328C12.622 6.7174 12.6292 6.73021 12.6399 6.73937C12.6507 6.74854 12.6642 6.75347 12.6782 6.75327C12.7123 6.75327 12.7854 6.75827 12.7854 6.70328C12.7854 6.66329 12.7513 6.62829 12.7318 6.67329C12.7074 6.71328 12.6831 6.70828 12.6684 6.67329V6.66829ZM12.7026 6.51831C12.6928 6.52831 12.7026 6.5733 12.7172 6.5683C12.7732 6.56871 12.8284 6.55498 12.878 6.52831C12.8878 6.51831 12.8829 6.49332 12.8683 6.49332C12.8195 6.49332 12.7416 6.49332 12.7026 6.51831ZM13.1315 6.63329C13.1705 6.5733 13.268 6.5683 13.229 6.65329C13.1289 6.85943 13.0265 7.06441 12.9219 7.26819C12.8829 7.33817 12.8537 7.30318 12.8829 7.24819C12.917 7.1782 13.1217 6.64829 13.1315 6.63329Z" fill="white"/>
<path fill-rule="evenodd" clip-rule="evenodd" d="M12.7558 7.36815C12.746 7.32816 12.6827 7.26817 12.6924 7.37815C12.7022 7.56812 12.9605 7.50813 13.0336 7.44314C13.1067 7.37815 13.0482 7.65811 13.1408 7.6881C13.1896 7.7031 13.2871 7.63311 13.3358 7.56812C13.4674 7.39315 13.5552 7.13819 13.677 6.96822C13.7257 6.89823 13.6526 6.84824 13.6283 6.90323C13.5113 7.0932 13.3748 7.48314 13.2237 7.58312C13.1019 7.6631 13.1408 7.48314 13.136 7.42315C13.1311 7.38315 13.0824 7.32316 13.019 7.37815C12.968 7.42001 12.9039 7.44134 12.8386 7.43814C12.8045 7.43814 12.7704 7.43814 12.7558 7.36815Z" fill="white"/>
<path fill-rule="evenodd" clip-rule="evenodd" d="M13.2141 7.01819C13.2141 7.0032 13.1605 6.9982 13.1654 7.05319C13.1654 7.09318 13.2141 7.10318 13.219 7.10318C13.2921 7.04319 13.2044 7.07319 13.2141 7.0132V7.01819ZM13.102 7.23816C13.0874 7.23816 13.0728 7.28815 13.1118 7.29315L13.3018 7.28315C13.3213 7.28315 13.3311 7.23816 13.2823 7.24316C13.2239 7.24316 13.1507 7.22816 13.102 7.24316V7.23816ZM10.08 6.4083C10.1044 6.4083 10.158 6.47828 10.1531 6.50328C10.1531 6.51328 10.0946 6.50328 10.08 6.48828C10.0654 6.47329 10.0703 6.4083 10.08 6.4083ZM9.82167 6.92821C9.77293 6.9582 9.83142 7.0132 9.87041 6.9882C10.0069 6.89322 10.2116 6.79823 10.2603 6.61326C10.275 6.55327 10.3286 6.45829 10.3822 6.43829C10.4309 6.4133 10.5089 6.53328 10.5577 6.43829C10.5869 6.3883 10.6893 6.47329 10.7136 6.41829C10.7429 6.35331 10.7283 6.31831 10.7283 6.24832C10.7283 6.20833 10.6942 6.19833 10.6698 6.26332C10.66 6.29332 10.6698 6.32331 10.6649 6.34331C10.6552 6.35331 10.6357 6.3633 10.6162 6.35331C10.6064 6.34331 10.6162 6.31831 10.5869 6.30331C10.5772 6.30331 10.5577 6.29831 10.5479 6.31331C10.5138 6.3783 10.4992 6.43829 10.4456 6.3633C10.4017 6.31331 10.3773 6.20833 10.3481 6.34831C10.3383 6.3983 10.2652 6.46829 10.2214 6.46829C10.1677 6.46829 10.1824 6.31831 10.0654 6.34331C10.002 6.3583 10.0069 6.47828 10.0166 6.51828C10.0313 6.58327 10.2116 6.53827 10.197 6.57827C10.1677 6.71325 9.98252 6.84822 9.82167 6.92821ZM8.71523 7.5881C8.71035 7.6131 8.7396 7.67309 8.76884 7.67809C8.79809 7.67809 8.81759 7.6131 8.80784 7.5881C8.79809 7.5731 8.7201 7.5731 8.71523 7.5881ZM8.87608 7.83306C8.85658 7.81306 8.79809 7.86805 8.84683 7.90805C8.8712 7.93304 8.96869 7.96304 8.99306 7.91805C9.03205 7.85806 8.95894 7.64309 8.99306 7.6181C9.01743 7.5931 9.12953 7.75807 9.18802 7.76807C9.31963 7.78807 9.28551 7.53811 9.43173 7.55811C9.52434 7.5681 9.53409 7.44812 9.51947 7.36814C9.50972 7.29315 9.39274 7.18817 9.33913 7.13817C9.27089 7.07818 9.23677 7.18817 9.28063 7.21816C9.33912 7.26815 9.44148 7.36314 9.45611 7.42313C9.46098 7.45312 9.38787 7.51311 9.35862 7.49812C9.29038 7.45812 9.23189 7.29815 9.1734 7.26315C9.15391 7.25316 9.10516 7.27815 9.12466 7.32814C9.15391 7.38313 9.27089 7.46312 9.27576 7.52311C9.28063 7.5731 9.22702 7.68308 9.18802 7.68308C9.14416 7.68308 9.0418 7.54811 9.00768 7.48312C8.98818 7.45812 8.93457 7.45812 8.92482 7.50311C8.92165 7.59545 8.92984 7.68783 8.94919 7.77807C8.95894 7.85806 8.90532 7.86305 8.87608 7.83306ZM8.68111 7.40313C8.66161 7.42313 8.7201 7.46312 8.72985 7.45312C8.74935 7.43313 8.83221 7.33814 8.81759 7.30315C8.80296 7.27315 8.69086 7.20316 8.67136 7.23816C8.63724 7.29315 8.77859 7.32314 8.75422 7.33814C8.72697 7.35613 8.70235 7.37802 8.68111 7.40313ZM8.88095 6.9832C8.88095 6.9832 8.91994 7.10818 8.94919 7.05319C8.96869 7.01819 8.88095 6.9832 8.88095 6.9832ZM8.93944 7.18317C8.92969 7.18317 8.8907 7.21816 8.91507 7.23316C8.95406 7.25316 9.05642 7.27315 9.03205 7.19817C9.01743 7.15317 9.18803 7.19816 9.14416 7.07818C9.12653 7.04119 9.09737 7.01128 9.0613 6.9932C9.0418 6.9932 8.98818 7.01819 9.0223 7.03819C9.04667 7.04819 9.11979 7.09318 9.09542 7.12318C9.0613 7.15317 9.0418 7.10818 9.00281 7.11818C8.98331 7.11818 8.99793 7.17817 8.98331 7.19317C8.98331 7.20316 8.94919 7.17317 8.93944 7.17817V7.18317ZM9.20752 6.70825C9.17745 6.73374 9.15681 6.76902 9.14903 6.80823C9.14903 6.81823 9.16365 6.83822 9.1734 6.83323C9.20345 6.80986 9.22423 6.77611 9.23189 6.73824C9.23189 6.72324 9.22214 6.69825 9.20752 6.70825ZM9.344 6.69325C9.30501 6.64326 9.39274 6.56327 9.42686 6.66825C9.45123 6.73324 9.69494 7.06319 9.74368 7.17317C9.78268 7.24816 9.74368 7.27815 9.69982 7.22316C9.57796 7.06319 9.4756 6.86322 9.344 6.69325ZM9.59746 6.69825C9.64132 6.64826 9.72906 6.54827 9.70469 6.49828C9.68519 6.44829 9.63158 6.44829 9.62183 6.46329C9.57309 6.52828 9.66082 6.51328 9.6462 6.53328C9.62183 6.58327 9.59746 6.61326 9.58284 6.66325C9.57796 6.67825 9.58771 6.70825 9.59746 6.69825ZM13.3896 6.85822C13.3555 6.83323 13.4188 6.70825 13.4627 6.75824C13.5748 6.89322 13.6284 7.33814 13.6625 7.67309C13.6625 7.67309 13.6138 7.71808 13.6138 7.70808C13.6138 7.53311 13.5407 6.9882 13.3896 6.85822ZM10.8014 6.42829C10.7624 6.33831 10.855 6.30831 10.8696 6.3683C10.933 6.65825 11.089 6.87822 11.2108 7.07319C11.2449 7.13318 11.2108 7.17317 11.128 7.11318C11.0695 7.07319 11.0061 6.91821 10.9817 6.91321C10.9232 6.90321 10.7965 7.16317 10.5382 7.08818C10.4699 7.06819 10.4748 6.86322 10.4699 6.77324C10.4699 6.72824 10.5187 6.72324 10.5187 6.77324C10.5187 6.85822 10.5187 7.03319 10.621 7.04319C10.7088 7.04319 10.894 6.92321 10.933 6.82323C10.972 6.72324 10.8404 6.52828 10.8014 6.42329V6.42829Z" fill="white"/>
<path fill-rule="evenodd" clip-rule="evenodd" d="M13.4576 7.6381C13.4771 7.57811 13.755 7.09819 13.794 6.99321C13.8135 6.94322 13.8914 7.08319 13.8135 7.15818C13.7452 7.21817 13.5454 7.55811 13.5064 7.67809C13.4869 7.72809 13.4381 7.70309 13.4576 7.6381Z" fill="white"/>
<path fill-rule="evenodd" clip-rule="evenodd" d="M13.9302 7.18319C13.979 6.98322 14.1057 7.21318 13.9936 7.32316C13.8279 7.49314 13.7742 7.81808 13.5062 7.86807C13.4379 7.88307 13.3112 7.83308 13.2722 7.80308C13.2576 7.79309 13.282 7.7231 13.3258 7.75809C13.3892 7.80808 13.5257 7.82308 13.5988 7.76309C13.758 7.60384 13.8725 7.40352 13.9302 7.18319ZM11.1519 7.81808C11.1373 7.83308 11.1032 7.83308 11.0983 7.85308C11.0837 7.92306 11.0983 7.96306 11.0837 8.03305C11.0691 8.10303 11.0203 8.10303 11.0252 8.04804C11.0252 7.97805 11.0886 7.87307 11.0447 7.86807C11.0155 7.86307 10.996 7.82308 11.0252 7.80308C11.0788 7.76809 11.1081 7.77309 11.1422 7.78309C11.1568 7.78809 11.1617 7.80808 11.1519 7.81808Z" fill="white"/>
<path fill-rule="evenodd" clip-rule="evenodd" d="M11.1134 7.71814C11.0451 7.78813 10.9769 7.81313 10.9135 7.89311C10.8843 7.92311 10.8891 7.9681 10.8696 8.01309C10.855 8.05809 10.8014 8.06309 10.7868 8.05809C10.7624 8.03809 10.7673 7.9581 10.738 7.9981C10.7088 8.04309 10.6942 8.09808 10.6552 8.09808C10.6211 8.09808 10.5577 8.02309 10.5918 8.02309C10.7039 8.00809 10.6991 7.92311 10.738 7.91311C10.7868 7.90811 10.7868 7.9881 10.8209 7.9731C10.8404 7.9631 10.855 7.86812 10.8794 7.84312C10.9525 7.76313 11.011 7.72314 11.089 7.66315C11.1231 7.63315 11.1524 7.68815 11.1134 7.72314V7.71814ZM11.3717 7.9681C11.3132 7.9781 11.3229 8.05309 11.3424 8.05809C11.3668 8.07308 11.4107 8.07808 11.4253 7.9931C11.4351 7.9581 11.4399 8.16807 11.513 8.08808C11.5618 8.03809 11.6641 8.09808 11.708 8.03809C11.7421 7.9931 11.7568 7.9631 11.7275 7.90311C11.7178 7.88811 11.6788 7.89311 11.6788 7.93811C11.6788 7.9781 11.6544 8.02309 11.6154 8.01809C11.5959 8.01309 11.6251 7.92311 11.6057 7.89811C11.6011 7.89353 11.595 7.89097 11.5886 7.89097C11.5822 7.89097 11.5761 7.89353 11.5715 7.89811C11.5569 7.91811 11.5862 8.00809 11.5423 8.01809C11.4838 8.02809 11.513 7.9581 11.4935 7.9481C11.4107 7.90811 11.4058 7.9581 11.3717 7.9631V7.9681ZM11.8104 7.81812C11.8542 7.80813 11.8396 7.80813 11.9079 7.75314C11.9322 7.73314 11.9371 7.79313 11.9322 7.81812C11.9322 7.85312 11.8835 7.82812 11.8689 7.86312C11.8494 7.90811 11.8591 8.01309 11.8494 8.05309C11.8494 8.07308 11.8104 8.07308 11.8104 8.05309C11.8006 8.00309 11.8152 7.9531 11.8104 7.88811C11.8104 7.86812 11.786 7.83312 11.8104 7.82312V7.81812ZM11.5667 7.69314C11.5569 7.73814 11.5569 7.77313 11.5569 7.80813C11.5569 7.83312 11.6057 7.81812 11.6057 7.81313C11.6057 7.77313 11.6154 7.71314 11.6057 7.69814C11.5959 7.69315 11.5715 7.68315 11.5667 7.69314Z" fill="white"/>
<path fill-rule="evenodd" clip-rule="evenodd" d="M11.2599 7.22812L11.1916 7.50807L11.0942 7.3181V7.51307L10.8797 7.25311L10.9528 7.53307L10.7578 7.3631L10.8651 7.55306L10.5239 7.3281L10.7383 7.58806L10.4654 7.44808L10.6604 7.61805L10.2217 7.44808L10.6457 7.66305C10.8384 7.5731 11.0483 7.52869 11.2599 7.53307C11.4987 7.53307 11.7132 7.58306 11.8692 7.66305L12.2981 7.44808L11.8594 7.61805L12.0544 7.44808L11.7863 7.58806L11.9959 7.3281L11.6547 7.55306L11.7619 7.3631L11.567 7.52807L11.6401 7.25311L11.4305 7.51307V7.3181L11.333 7.50807L11.2599 7.22812Z" fill="white"/>
<path d="M10.8832 13.3034L10.8695 13.4257H10.8511L10.8465 13.341C10.8411 13.3153 10.8335 13.2901 10.8236 13.2658C10.8179 13.2448 10.8102 13.2243 10.8007 13.2047L10.7549 13.1389L10.7915 13.0355C10.8221 13.0676 10.8456 13.1061 10.8603 13.1483C10.8764 13.1967 10.8841 13.2476 10.8832 13.2987V13.3034ZM11.204 13.1013C11.204 13.1342 11.1949 13.1577 11.1811 13.1718C11.172 13.1859 11.1536 13.2 11.1215 13.2047L11.1399 13.2752C11.1445 13.3064 11.1445 13.3381 11.1399 13.3693C11.1389 13.3897 11.1374 13.41 11.1353 13.4304H11.117C11.117 13.4099 11.1155 13.3895 11.1124 13.3693C11.1108 13.3533 11.1077 13.3376 11.1032 13.3222L11.0849 13.2752C11.0758 13.2525 11.0651 13.2305 11.0528 13.2094L11.007 13.1295L11.0345 13.0355L11.0803 13.0825C11.094 13.0919 11.1078 13.0966 11.1261 13.0966C11.1628 13.0966 11.1811 13.0778 11.1811 13.0355H11.1995V13.1013H11.204ZM11.4928 13.3269L11.4699 13.4257C11.4515 13.4257 11.4424 13.4116 11.4332 13.3928L11.4149 13.3316C11.4116 13.3051 11.41 13.2784 11.4103 13.2517C11.3955 13.2569 11.3801 13.26 11.3645 13.2611C11.3431 13.2622 11.322 13.2555 11.3049 13.2423C11.2979 13.2367 11.2922 13.2296 11.2882 13.2215C11.2843 13.2133 11.2821 13.2044 11.282 13.1953C11.282 13.153 11.2957 13.1154 11.314 13.0872C11.337 13.0543 11.3599 13.0402 11.3828 13.0355C11.4057 13.0355 11.4195 13.0402 11.4286 13.0543C11.4365 13.0671 11.4412 13.0816 11.4424 13.0966V13.1906C11.4424 13.2329 11.447 13.2611 11.4561 13.2799C11.4561 13.294 11.4699 13.3081 11.4928 13.3269ZM11.4011 13.1624C11.4011 13.1342 11.3874 13.1248 11.3645 13.1248C11.355 13.1234 11.3454 13.1251 11.337 13.1295C11.3278 13.1342 11.3278 13.1389 11.3278 13.1436C11.3278 13.1577 11.3415 13.1671 11.3736 13.1671L11.4011 13.1624ZM11.7999 13.3034L11.7861 13.4257C11.7632 13.4069 11.7403 13.3787 11.722 13.3316C11.6968 13.2692 11.6769 13.2048 11.6624 13.1389C11.6395 13.2266 11.612 13.3129 11.5799 13.3975C11.5697 13.4106 11.5573 13.4218 11.5432 13.4304V13.3128C11.5707 13.2799 11.5845 13.2611 11.589 13.2423C11.6044 13.2173 11.6168 13.1905 11.6257 13.1624L11.6486 13.0355H11.667L11.7082 13.1624C11.7174 13.1906 11.7311 13.2188 11.7495 13.2376L11.7953 13.3034" fill="white"/>
<path d="M12.6935 14.4504C12.7118 14.4692 12.721 14.488 12.7256 14.5068L12.7439 14.582L12.7073 14.5867C12.6947 14.5615 12.6793 14.5378 12.6614 14.5162C12.6454 14.4967 12.6286 14.4779 12.611 14.4598C12.5856 14.4357 12.5596 14.4121 12.5331 14.3893C12.5035 14.3615 12.473 14.3348 12.4414 14.3094C12.4231 14.3 12.4139 14.2906 12.4139 14.2859C12.4066 14.2746 12.4019 14.2617 12.4002 14.2483C12.3954 14.2235 12.3923 14.1983 12.391 14.1731L12.5148 14.2765C12.5542 14.3095 12.5924 14.344 12.6293 14.3799L12.6935 14.4504ZM12.2581 14.1778L12.2489 14.2718H12.1068L12.1206 14.1778H12.2581ZM12.6431 14.5961L12.2948 14.7043L12.2352 14.6102L12.5331 14.5162L12.501 14.4786C12.4892 14.4666 12.4752 14.457 12.4598 14.4504C12.4599 14.4591 12.4583 14.4677 12.4552 14.4758C12.452 14.4839 12.4474 14.4912 12.4414 14.4974C12.4292 14.5113 12.4133 14.5211 12.3956 14.5256C12.3686 14.5332 12.3401 14.5332 12.3131 14.5256C12.2899 14.5229 12.2686 14.5111 12.2535 14.4927C12.2331 14.4622 12.222 14.4263 12.2214 14.3893C12.2214 14.3423 12.2352 14.3141 12.2627 14.3047C12.2948 14.2953 12.3452 14.3047 12.4002 14.3376C12.4542 14.3633 12.5013 14.402 12.5377 14.4504L12.6431 14.5961ZM12.3773 14.4081C12.3656 14.402 12.3533 14.3973 12.3406 14.394C12.3316 14.3914 12.3221 14.3914 12.3131 14.394C12.3085 14.3945 12.3041 14.3961 12.3001 14.3985C12.2962 14.4009 12.2928 14.4042 12.2902 14.4081C12.2872 14.4122 12.2856 14.4171 12.2856 14.4222C12.2856 14.4273 12.2872 14.4322 12.2902 14.4363L12.3131 14.4457H12.3406L12.3589 14.4316L12.3773 14.4081ZM12.0106 14.3329L11.9877 14.4269L11.841 14.4128L11.8639 14.3188L12.006 14.3329H12.0106ZM12.3498 14.6949L12.2718 14.7137C12.246 14.718 12.2197 14.718 12.1939 14.7137C12.17 14.7126 12.1465 14.7062 12.1252 14.6949C12.1114 14.7184 12.0885 14.7419 12.0564 14.7513C12.0331 14.7635 12.0085 14.773 11.9831 14.7795L11.9281 14.7936L11.8823 14.6996L11.9327 14.6855C11.953 14.6807 11.9729 14.6744 11.9923 14.6667L12.0335 14.6432L11.9877 14.6196H11.9556C11.9526 14.6188 11.9494 14.6188 11.9464 14.6196C11.942 14.6233 11.9388 14.6282 11.9373 14.6337H11.9143C11.8914 14.5961 11.8868 14.5632 11.9006 14.5397C11.9143 14.5162 11.9418 14.5021 11.9923 14.4927C12.031 14.4817 12.0715 14.4785 12.1114 14.4833C12.1481 14.488 12.171 14.5021 12.1802 14.5256C12.1893 14.535 12.1893 14.5491 12.1893 14.5585L12.171 14.6149H12.1939C12.203 14.6164 12.2123 14.6164 12.2214 14.6149L12.2993 14.6008L12.3452 14.6949H12.3498ZM11.9785 14.7795L11.9052 14.7936C11.8705 14.8009 11.8343 14.7941 11.8043 14.7748C11.7675 14.7426 11.7404 14.7001 11.7264 14.6526L11.6898 14.5491C11.6829 14.5298 11.67 14.5132 11.6531 14.5021C11.6402 14.4927 11.6264 14.4848 11.6118 14.4786L11.6393 14.3799C11.6668 14.394 11.6852 14.4081 11.7035 14.4269L11.7493 14.5068L11.7723 14.5773L11.8227 14.6808C11.8364 14.6949 11.8548 14.6996 11.8685 14.6949L11.9464 14.6855L11.9785 14.7795ZM11.6577 14.4269L11.6118 14.5162L11.4743 14.4833L11.5202 14.394L11.6577 14.4269ZM11.7402 14.8218L11.3964 14.8547L11.3781 14.7607L11.6623 14.7278C11.6559 14.7133 11.6465 14.7005 11.6348 14.6902C11.6202 14.6797 11.6048 14.6702 11.5889 14.662L11.6118 14.5679C11.6439 14.5867 11.6668 14.6102 11.6852 14.629C11.6989 14.6526 11.7127 14.6855 11.7218 14.7278L11.7402 14.8218ZM11.4652 14.8688C11.4314 14.8679 11.3977 14.8648 11.3643 14.8594C11.3378 14.8538 11.3117 14.846 11.2864 14.8359C11.2674 14.8446 11.2474 14.8509 11.2268 14.8547C11.2009 14.857 11.1749 14.857 11.1489 14.8547H11.0573C11.0381 14.8548 11.0192 14.8499 11.0023 14.8406C10.9885 14.8312 10.9793 14.8171 10.9656 14.7936C10.9464 14.8143 10.9229 14.8303 10.8968 14.8406L10.8189 14.8453H10.741L10.7502 14.7466H10.8281C10.8648 14.7466 10.8968 14.7466 10.9243 14.7278C10.9413 14.7213 10.956 14.7098 10.9666 14.6947C10.9772 14.6797 10.9833 14.6617 10.9839 14.6432L11.016 14.6479C11.0141 14.6682 11.0125 14.6886 11.0114 14.709C11.0114 14.7231 11.0114 14.7325 11.0252 14.7419C11.0389 14.7513 11.0527 14.756 11.071 14.756H11.1398C11.1856 14.756 11.2131 14.756 11.2314 14.7466C11.2589 14.7372 11.2727 14.7231 11.2773 14.6949L11.2818 14.6761C11.2818 14.6761 11.2956 14.6761 11.3048 14.6667L11.3277 14.6573V14.6761C11.3278 14.6808 11.3278 14.6855 11.3277 14.6902L11.3139 14.7419C11.3438 14.7523 11.3745 14.7602 11.4056 14.7654C11.4102 14.756 11.4056 14.7466 11.401 14.7325L11.3873 14.7043C11.3873 14.6992 11.3889 14.6942 11.3918 14.6902L11.4056 14.6808L11.4514 14.6384L11.4743 14.6855V14.7325L11.4652 14.8688ZM10.9473 14.4598L10.8556 14.5209L10.796 14.4786L10.7318 14.5256L10.6448 14.4786L10.7273 14.4175L10.796 14.4551L10.8648 14.4081L10.9473 14.4551V14.4598ZM10.8098 14.8406L10.4752 14.7842L10.5118 14.6902L10.796 14.7372C10.796 14.7184 10.796 14.7043 10.7868 14.6902C10.7803 14.6769 10.7727 14.6644 10.7639 14.6526L10.8373 14.5726C10.8556 14.6008 10.8648 14.6196 10.8693 14.6479C10.8693 14.6714 10.8602 14.7043 10.8464 14.7466L10.8098 14.8406ZM10.5302 14.7936L10.4568 14.7795C10.4156 14.7701 10.3927 14.7513 10.3881 14.7231C10.3789 14.6949 10.3927 14.6526 10.4248 14.5914L10.4798 14.4974C10.4935 14.4739 10.4981 14.4551 10.4935 14.441C10.4908 14.4293 10.4862 14.4182 10.4798 14.4081L10.5806 14.3329C10.5943 14.3564 10.5943 14.3799 10.5943 14.3987C10.5943 14.4222 10.5806 14.4504 10.5623 14.4833L10.5256 14.5491C10.505 14.5803 10.491 14.6155 10.4843 14.6526C10.4843 14.6714 10.4935 14.6808 10.5073 14.6855L10.5806 14.7043L10.5302 14.7983V14.7936ZM10.356 14.4222L10.2414 14.4739L10.1589 14.394L10.2781 14.347L10.356 14.4269V14.4222ZM10.3102 14.7372C10.2893 14.7629 10.2645 14.7851 10.2368 14.803C10.2132 14.8181 10.1866 14.8277 10.1589 14.8312L10.0489 14.8265C10.0052 14.8198 9.96223 14.8088 9.9206 14.7936C9.86158 14.7766 9.80787 14.7442 9.76477 14.6996C9.73727 14.662 9.73727 14.629 9.76477 14.5961C9.79055 14.5655 9.82163 14.54 9.85643 14.5209C9.8931 14.4974 9.9481 14.4739 10.0306 14.4457L10.0489 14.4692L9.9206 14.5256C9.89768 14.5397 9.87477 14.5538 9.86102 14.5726C9.84268 14.5914 9.84727 14.6196 9.87018 14.6479C9.95291 14.7136 10.0543 14.7499 10.1589 14.7513C10.2139 14.7513 10.2506 14.7372 10.2643 14.7184C10.2781 14.7043 10.2827 14.6902 10.2873 14.6714L10.2964 14.5961L10.411 14.5256C10.4116 14.5492 10.4101 14.5728 10.4064 14.5961C10.3966 14.6243 10.381 14.65 10.3606 14.6714L10.3056 14.7372" fill="#BF0000"/>
</g>
</g>
<defs>
<clipPath id="clip0_204_5619">
<rect width="29.3333" height="22.5641" fill="white" transform="translate(-3.38477 -0.564087)"/>
</clipPath>
</defs>
</svg>
