<svg width="16" height="16" viewBox="0 0 16 16" fill="none" xmlns="http://www.w3.org/2000/svg">
<path d="M12.8299 2.20123C11.4698 0.841204 9.59091 0 7.51548 0C7.28519 0 7.05731 0.0103873 6.8323 0.0306923C6.83328 0.269886 6.8461 0.508884 6.87071 0.746811L7.42844 0.63066C7.61267 0.592335 7.79311 0.71062 7.83143 0.894881C7.86975 1.07911 7.75145 1.25955 7.56721 1.29786L6.9732 1.42159C7.00409 1.57537 7.04007 1.72809 7.08106 1.87949L7.50307 1.7916C7.68732 1.75327 7.86775 1.87158 7.90607 2.05582C7.9444 2.24006 7.82609 2.4205 7.64185 2.45881L7.2919 2.53171C7.3645 2.72415 7.44539 2.91336 7.53434 3.0988L8.02234 2.92513C8.19995 2.86249 8.39474 2.9557 8.45737 3.13331C8.52001 3.31092 8.42681 3.50569 8.2492 3.56834L7.86247 3.70598C7.99316 3.92219 8.13516 4.13136 8.28788 4.33262L8.77818 4.06078C8.94253 3.9694 9.14986 4.02855 9.24124 4.1929C9.33262 4.35724 9.27347 4.56457 9.10911 4.65596L8.73323 4.86436C8.79856 4.93516 8.86531 5.00465 8.93343 5.07278C9.08044 5.21977 9.23374 5.36032 9.3929 5.49404L9.86929 5.02459C10.0034 4.89268 10.2191 4.89446 10.351 5.0286C10.4829 5.16274 10.4812 5.37843 10.347 5.51033L9.94025 5.9112C10.1768 6.07425 10.423 6.22293 10.6774 6.35645L10.9194 5.82731C10.9975 5.65633 11.1994 5.58106 11.3704 5.65917C11.5414 5.73729 11.6167 5.93923 11.5386 6.11022L11.2946 6.64364C11.5195 6.73554 11.749 6.81588 11.9821 6.88432L12.1296 6.39329C12.1834 6.21273 12.3734 6.10998 12.554 6.16376C12.7345 6.21757 12.8373 6.40756 12.7835 6.58812L12.6462 7.04515C12.8578 7.08575 13.071 7.11678 13.2854 7.13816L13.4961 6.43656C13.5499 6.25601 13.7399 6.15326 13.9204 6.20704C14.101 6.26084 14.2037 6.45084 14.1499 6.6314L13.987 7.17391L14.0062 7.17395C14.2319 7.17395 14.4473 7.1647 14.6518 7.14626C14.7749 7.13516 14.8976 7.12086 15.0198 7.10337C14.9165 5.19206 14.0992 3.47061 12.8298 2.20122L12.8299 2.20123ZM6.14995 0.12388C4.62195 0.404338 3.25556 1.14679 2.20112 2.20123C0.961964 3.44039 0.153641 5.11034 0.0197155 6.96716C0.140653 6.95075 0.261944 6.93707 0.383497 6.92612C0.633989 6.90353 0.875524 6.89219 1.10727 6.89219C1.1866 6.89219 1.2657 6.89336 1.34448 6.89563L1.48327 6.43344C1.53707 6.25288 1.72707 6.15013 1.90763 6.20392C2.0882 6.25772 2.19094 6.44771 2.13715 6.62827L2.04182 6.94573C2.26816 6.97182 2.4933 7.00749 2.71661 7.05265L2.8892 6.47797C2.943 6.2974 3.13299 6.19466 3.31355 6.24844C3.49412 6.30224 3.59687 6.49224 3.54308 6.6728L3.37979 7.21649C3.65645 7.29748 3.92852 7.39335 4.19484 7.50367L4.39894 7.05739C4.47705 6.88641 4.67899 6.81113 4.84997 6.88925C5.02095 6.96736 5.09622 7.1693 5.01811 7.34029L4.81215 7.79066C5.1557 7.96843 5.48604 8.17066 5.80061 8.39577L6.15289 8.04862C6.28702 7.9167 6.50271 7.91849 6.63463 8.05263C6.76655 8.18676 6.76477 8.40245 6.63062 8.53436L6.34187 8.81892C6.50587 8.95863 6.66423 9.10481 6.81658 9.25712C6.93531 9.37586 7.05033 9.49825 7.16147 9.62412L7.71471 9.31738C7.87906 9.22599 8.08639 9.28515 8.17777 9.4495C8.26915 9.61384 8.21001 9.82117 8.04566 9.91255L7.59666 10.1615C7.77831 10.4064 7.94596 10.6614 8.0988 10.9253L8.71874 10.7046C8.89635 10.642 9.09114 10.7352 9.15377 10.9128C9.21641 11.0904 9.12322 11.2852 8.9456 11.3479L8.41821 11.5356C8.52457 11.7618 8.6203 11.9928 8.70508 12.228L9.4083 12.0815C9.59255 12.0432 9.77298 12.1615 9.8113 12.3457C9.84963 12.53 9.73132 12.7104 9.54708 12.7487L8.90951 12.8815C8.9528 13.0438 8.99097 13.2074 9.02397 13.372L9.48511 13.276C9.66935 13.2377 9.84979 13.356 9.8881 13.5402C9.92643 13.7244 9.80812 13.9049 9.62388 13.9432L9.1296 14.0462C9.15973 14.3118 9.17676 14.5787 9.18063 14.846C10.5876 14.5277 11.8448 13.815 12.8298 12.83C14.1298 11.53 14.9557 9.75593 15.0261 7.78934C14.9212 7.80306 14.816 7.81467 14.7106 7.82417C14.4665 7.84616 14.2315 7.8572 14.0062 7.8572C13.9315 7.8572 13.857 7.85616 13.7827 7.85409L13.65 8.29624C13.5962 8.47679 13.4062 8.57955 13.2256 8.52576C13.045 8.47197 12.9423 8.28196 12.9961 8.10141L13.0855 7.80377C12.8719 7.77886 12.6595 7.74516 12.4487 7.70278L12.2835 8.25296C12.2297 8.43352 12.0397 8.53628 11.8591 8.48248C11.6786 8.42869 11.5758 8.23868 11.6296 8.05813L11.7855 7.53889C11.5225 7.46151 11.2636 7.37032 11.0101 7.26568L10.8156 7.69103C10.7375 7.86201 10.5356 7.93728 10.3646 7.85917C10.1936 7.78106 10.1183 7.57911 10.1965 7.40813L10.3928 6.97875C10.0638 6.80799 9.74721 6.61417 9.44552 6.39872L9.10889 6.73047C8.97476 6.86239 8.75907 6.86059 8.62715 6.72645C8.49524 6.59233 8.49703 6.37664 8.63117 6.24472L8.90438 5.97548C8.74761 5.84158 8.59615 5.7016 8.45035 5.55584C8.33661 5.44211 8.22638 5.32492 8.11981 5.20446L7.58885 5.49884C7.4245 5.59022 7.21717 5.53107 7.12579 5.36671C7.03441 5.20237 7.09355 4.99504 7.2579 4.90366L7.68474 4.66703C7.51204 4.43349 7.35241 4.19058 7.20658 3.9394L6.61154 4.15117C6.43393 4.21382 6.23914 4.12061 6.17651 3.943C6.11385 3.76539 6.20706 3.57061 6.38468 3.50797L6.88725 3.3291C6.78672 3.11451 6.69601 2.89545 6.6154 2.67261L5.94008 2.81327C5.75584 2.8516 5.5754 2.7333 5.53708 2.54905C5.49876 2.36481 5.61707 2.18438 5.8013 2.14606L6.41105 2.01905C6.37082 1.86746 6.33517 1.71469 6.30417 1.56094L5.86543 1.65233C5.68119 1.69065 5.50075 1.57235 5.46244 1.3881C5.42412 1.20386 5.54242 1.02343 5.72666 0.985111L6.19858 0.886821C6.1701 0.633434 6.15388 0.37882 6.14995 0.123869V0.12388ZM0.00134277 7.65729C0.0386753 9.67644 0.872119 11.501 2.20111 12.83C3.56114 14.19 5.44005 15.0312 7.51548 15.0312C7.84858 15.0312 8.17662 15.0095 8.49826 14.9674V14.9664C8.49826 14.7029 8.48438 14.4426 8.45746 14.1862L7.87297 14.3079C7.68873 14.3462 7.50829 14.2279 7.46997 14.0437C7.43166 13.8594 7.54996 13.679 7.73419 13.6407L8.35494 13.5114C8.32204 13.3467 8.2835 13.1832 8.2394 13.0211L7.79618 13.1134C7.61193 13.1518 7.4315 13.0335 7.39317 12.8492C7.35486 12.665 7.47316 12.4845 7.65739 12.4462L8.02874 12.3689C7.95186 12.1641 7.86588 11.9629 7.77106 11.7659L7.26065 11.9475C7.08304 12.0102 6.88825 11.917 6.82562 11.7393C6.76297 11.5617 6.85617 11.367 7.03379 11.3043L7.44309 11.1586C7.30527 10.9298 7.15516 10.7086 6.99344 10.4959L6.48149 10.7798C6.31714 10.8712 6.10981 10.812 6.01844 10.6477C5.92705 10.4833 5.98621 10.276 6.15055 10.1846L6.54826 9.9641C6.47824 9.88799 6.40664 9.81333 6.3335 9.74019C6.17993 9.58666 6.01969 9.43994 5.85325 9.30045L5.35676 9.78973C5.22263 9.92164 5.00695 9.91985 4.87503 9.78572C4.74311 9.65159 4.7449 9.4359 4.87904 9.30398L5.30607 8.88315C5.05649 8.71055 4.7965 8.5535 4.5276 8.41288L4.27431 8.96677C4.1962 9.13774 3.99425 9.21301 3.82327 9.13491C3.6523 9.0568 3.57702 8.85485 3.65513 8.68387L3.91041 8.12564C3.67263 8.0281 3.4299 7.94313 3.1832 7.87107L3.02864 8.38571C2.97486 8.56626 2.78485 8.66902 2.60429 8.61523C2.42373 8.56143 2.32098 8.37144 2.37476 8.19088L2.51913 7.71021C2.29502 7.66686 2.06903 7.63392 1.84187 7.61151L1.62272 8.34119C1.56893 8.52175 1.37892 8.6245 1.19836 8.57071C1.01781 8.51691 0.915056 8.32691 0.968839 8.14635L1.14028 7.57554L1.10727 7.57545C0.875118 7.57545 0.653215 7.58501 0.442202 7.60403C0.294745 7.61733 0.147725 7.63509 0.00134277 7.65729Z" fill="#C7C7C7"/>
</svg>
