<svg width="15" height="29" viewBox="0 0 15 29" fill="none" xmlns="http://www.w3.org/2000/svg">
<path d="M1.76259 9.53966C2.10829 9.40086 2.38867 9.13638 2.54741 8.79936C2.69846 8.48214 2.71846 8.11819 2.60307 7.78633L0.0426501 1.42424C0.0136829 1.35225 -0.000798517 1.27525 3.39571e-05 1.19766C0.000866431 1.12006 0.0169968 1.04339 0.0475019 0.972044C0.078007 0.900693 0.122287 0.836061 0.177807 0.781848C0.233327 0.727635 0.298995 0.684906 0.371052 0.656108L1.87391 0.0438336C1.94655 0.0141517 2.02439 -0.000740632 2.10286 2.83295e-05C2.18132 0.000797291 2.25885 0.017212 2.3309 0.0483118C2.40295 0.0794115 2.46807 0.124572 2.52245 0.181148C2.57683 0.237724 2.61938 0.30458 2.6476 0.377802L5.21915 6.74546C5.36948 7.06059 5.63721 7.30434 5.96502 7.42453C6.29898 7.55255 6.68861 7.55812 7.05041 7.4134C7.1224 7.38443 7.1994 7.36995 7.27699 7.37078C7.35458 7.37161 7.43125 7.38774 7.5026 7.41825C7.57395 7.44875 7.63859 7.49303 7.6928 7.54855C7.74701 7.60407 7.78974 7.66974 7.81854 7.7418L11.2974 16.3303L14.7484 24.8799C14.8318 25.0856 14.8729 25.306 14.8691 25.5279C14.8652 25.7498 14.8166 25.9686 14.7261 26.1713C14.5415 26.5825 14.2041 26.9059 13.7854 27.073L10.5738 28.3699C10.1578 28.538 9.69284 28.538 9.27687 28.3699C9.06956 28.2889 8.88081 28.1668 8.722 28.0108C8.5632 27.8549 8.43763 27.6684 8.35289 27.4626L4.88519 18.8574L1.43418 10.3078C1.40537 10.2355 1.39116 10.1581 1.39236 10.0803C1.39357 10.0024 1.41018 9.92558 1.44122 9.85418C1.47227 9.78278 1.51714 9.71822 1.57325 9.66424C1.62936 9.61026 1.6956 9.56792 1.76815 9.53966H1.76259ZM3.62167 9.30032C3.4232 9.72516 3.11596 10.09 2.73109 10.3579C3.83319 13.0853 4.90189 15.757 5.98172 18.4176C7.12277 21.2564 8.26383 24.0951 9.44942 27.0118C9.47356 27.0698 9.50917 27.1224 9.55412 27.1664C9.59907 27.2104 9.65244 27.2449 9.71103 27.2678C9.84327 27.3205 9.99067 27.3205 10.1229 27.2678L13.3401 25.9653C13.4703 25.9134 13.5758 25.8139 13.6351 25.687C13.6908 25.5701 13.6964 25.4365 13.6463 25.3141L10.1953 16.7701L6.91126 8.66578C6.44873 8.74155 5.97439 8.69354 5.53642 8.52662C5.0413 8.34025 4.61698 8.00352 4.32301 7.56368L1.82381 1.31848L1.27833 1.54112L3.85545 7.98114C3.8968 8.43386 3.81608 8.88938 3.62167 9.30032Z" fill="#AFAFAF"/>
</svg>
