<svg width="18" height="30" viewBox="0 0 18 30" fill="none" xmlns="http://www.w3.org/2000/svg">
<path d="M4.5421 10.2938C4.88781 10.155 5.16819 9.89053 5.32693 9.55351C5.47798 9.23629 5.49798 8.87234 5.38259 8.54048L2.82217 2.17839C2.7932 2.1064 2.77872 2.0294 2.77955 1.95181C2.78039 1.87421 2.79652 1.79755 2.82702 1.72619C2.85753 1.65484 2.90181 1.59021 2.95733 1.536C3.01285 1.48178 3.07851 1.43906 3.15057 1.41026L4.65343 0.797984C4.72607 0.768302 4.80391 0.75341 4.88237 0.754179C4.96084 0.754948 5.03837 0.771362 5.11042 0.802462C5.18247 0.833562 5.24759 0.878722 5.30197 0.935298C5.35635 0.991874 5.3989 1.05873 5.42712 1.13195L7.99867 7.49961C8.149 7.81474 8.41673 8.05849 8.74454 8.17868C9.0785 8.3067 9.46813 8.31227 9.82993 8.16755C9.90192 8.13858 9.97892 8.1241 10.0565 8.12493C10.1341 8.12576 10.2108 8.14189 10.2821 8.1724C10.3535 8.2029 10.4181 8.24718 10.4723 8.3027C10.5265 8.35822 10.5693 8.42389 10.5981 8.49595L14.0769 17.0845L17.5279 25.6341C17.6113 25.8397 17.6524 26.0601 17.6486 26.282C17.6447 26.5039 17.5961 26.7228 17.5056 26.9254C17.321 27.3367 16.9837 27.6601 16.565 27.8271L13.3533 29.124C12.9373 29.2921 12.4724 29.2921 12.0564 29.124C11.8491 29.0431 11.6603 28.9209 11.5015 28.765C11.3427 28.6091 11.2172 28.4226 11.1324 28.2168L7.66471 19.6115L4.2137 11.0619C4.18489 10.9896 4.17067 10.9123 4.17188 10.8344C4.17309 10.7566 4.1897 10.6797 4.22074 10.6083C4.25179 10.5369 4.29666 10.4724 4.35277 10.4184C4.40888 10.3644 4.47512 10.3221 4.54767 10.2938H4.5421ZM6.40119 10.0545C6.20271 10.4793 5.89548 10.8441 5.51061 11.112C6.61271 13.8394 7.6814 16.5112 8.76123 19.1718C9.90229 22.0105 11.0433 24.8492 12.2289 27.7659C12.2531 27.824 12.2887 27.8766 12.3336 27.9206C12.3786 27.9646 12.432 27.9991 12.4905 28.0219C12.6228 28.0746 12.7702 28.0746 12.9024 28.0219L16.1197 26.7195C16.2498 26.6676 16.3553 26.5681 16.4147 26.4412C16.4703 26.3243 16.4759 26.1907 16.4258 26.0682L12.9748 17.5242L9.69078 9.41993C9.22825 9.4957 8.75391 9.44769 8.31594 9.28077C7.82082 9.09441 7.3965 8.75767 7.10253 8.31783L4.60333 2.07263L4.05785 2.29527L6.63497 8.73529C6.67632 9.18801 6.5956 9.64353 6.40119 10.0545ZM3.56247 21.5318C4.03069 21.5304 4.49458 21.6215 4.92745 21.8C5.36031 21.9785 5.7536 22.2409 6.08469 22.5719C6.41577 22.903 6.67812 23.2963 6.85662 23.7292C7.03512 24.162 7.12626 24.6259 7.12479 25.0942C7.12626 25.5624 7.03512 26.0263 6.85662 26.4591C6.67812 26.892 6.41577 27.2853 6.08469 27.6164C5.7536 27.9475 5.36031 28.2098 4.92745 28.3883C4.49458 28.5668 4.03069 28.658 3.56247 28.6565C3.09424 28.658 2.63035 28.5668 2.19748 28.3883C1.76462 28.2098 1.37133 27.9475 1.04024 27.6164C0.709157 27.2853 0.446814 26.892 0.268311 26.4591C0.0898082 26.0263 -0.00133052 25.5624 0.000139576 25.0942C-0.00133052 24.6259 0.0898082 24.162 0.268311 23.7292C0.446814 23.2963 0.709157 22.903 1.04024 22.5719C1.37133 22.2409 1.76462 21.9785 2.19748 21.8C2.63035 21.6215 3.09424 21.5304 3.56247 21.5318ZM5.24344 23.4132C4.91287 23.0771 4.4894 22.8474 4.02737 22.7536C3.56534 22.6598 3.08582 22.7062 2.65036 22.8868C2.21489 23.0675 1.84333 23.3741 1.58336 23.7674C1.32338 24.1607 1.18686 24.6227 1.19129 25.0942C1.18798 25.5651 1.32532 26.0263 1.58572 26.4188C1.84612 26.8112 2.21773 27.117 2.65297 27.2969C3.0882 27.4769 3.56724 27.5228 4.02874 27.4289C4.49024 27.3349 4.9132 27.1054 5.24344 26.7696C5.46474 26.5497 5.64038 26.2882 5.76023 26.0002C5.88008 25.7122 5.94178 25.4033 5.94178 25.0914C5.94178 24.7794 5.88008 24.4705 5.76023 24.1825C5.64038 23.8945 5.46474 23.6331 5.24344 23.4132Z" fill="#AFAFAF"/>
</svg>
