<svg width="20" height="18" viewBox="0 0 20 18" fill="none" xmlns="http://www.w3.org/2000/svg">
<path d="M12.3327 0.599909C12.3453 0.310543 11.9667 0.0589522 11.487 0.0379651C11.0072 0.0169781 10.6081 0.234542 10.5954 0.523908C10.5828 0.813274 10.9614 1.06486 11.4411 1.08585C11.9208 1.10684 12.32 0.889275 12.3327 0.599909Z" fill="#2B7BB9"/>
<path d="M16.2313 13.1847C16.2313 13.1847 18.1885 13.9542 19.1118 13.2336C19.1813 12.5836 17.2724 12.1031 17.2724 12.1031L16.2313 13.1847ZM3.84016 11.9675C3.84016 11.9675 0.920157 16.3153 0.0862676 15.5686C0.0862676 15.5686 -0.149843 14.7925 0.769601 13.2253C1.6896 11.6575 3.84016 11.9675 3.84016 11.9675Z" fill="#292F33"/>
<path d="M10.6396 0.451416C10.6396 0.451416 5.89681 0.690305 3.00903 9.53364C7.17237 9.53364 12.334 9.84197 12.334 9.84197C12.334 9.84197 16.6668 12.0542 17.2724 12.3247C17.8774 12.5953 19.1118 13.2342 19.1118 13.2342C19.1118 13.2342 19.7168 10.1614 19.2813 7.85086C18.8457 5.54031 16.764 0.549749 10.6396 0.451416Z" fill="#656565"/>
<path d="M1.52185 11.7554C0.50352 13.4454 -0.264814 14.9893 0.0862972 15.5687C0.0862972 15.5687 -0.0264806 15.146 0.516853 14.6615C1.01241 14.2199 2.07519 13.816 4.1063 13.816C7.18074 13.816 11.3319 16.3149 13.0613 16.906C14.3807 17.3571 14.6585 17.0104 15.388 16.2115C16.1657 15.3593 17.4524 12.376 17.4524 12.376C17.4524 12.376 13.3024 10.0943 10.8574 9.19485C8.41241 8.29541 7.88074 8.40208 7.1063 8.41652C5.40852 8.44819 4.15408 8.7893 3.00908 9.53374C3.00908 9.53374 2.17908 10.6649 1.52185 11.7554Z" fill="#656565"/>
<path d="M16.6517 4.07315C16.3129 2.16037 14.4234 1.25315 14.4234 1.25315C13.3706 0.762592 12.1134 0.448703 10.6101 0.424814C10.6101 0.424814 3.83674 0.36648 3.00952 9.53315C3.00952 9.53315 4.42119 8.9137 7.40952 9.09259C11.4645 9.33593 15.4173 11.3798 16.2906 11.7659C16.7517 10.222 17.0501 6.32259 16.6517 4.07315Z" fill="#C7C7C7"/>
</svg>
