<svg width="8" height="11" viewBox="0 0 8 11" fill="none" xmlns="http://www.w3.org/2000/svg">
<path d="M6.66176 4.87329L4.29513 4.23529L4.66399 1.48089C4.68031 1.39764 4.67524 1.31162 4.64926 1.23088C4.62327 1.15013 4.57722 1.0773 4.51541 1.01919C4.4536 0.96109 4.37805 0.919615 4.29583 0.89865C4.21362 0.877684 4.12742 0.877914 4.04531 0.899316C3.93633 0.928242 3.84025 0.993 3.77255 1.08316L3.7465 1.12119L1.04232 5.5204C1.00171 5.5867 0.977091 5.66153 0.970409 5.73897C0.963727 5.81642 0.975165 5.89436 1.00382 5.96661C1.03247 6.03887 1.07755 6.10347 1.1355 6.15529C1.19344 6.20712 1.26266 6.24475 1.33767 6.26521L3.70504 6.90405L3.33174 9.69017C3.31603 9.80395 3.34003 9.91965 3.39969 10.0178C3.45935 10.1159 3.55102 10.1905 3.65927 10.229C3.76751 10.2674 3.88571 10.2674 3.99396 10.2289C4.1022 10.1904 4.19388 10.1158 4.25354 10.0177L6.95747 5.61749C6.99795 5.55119 7.02245 5.47638 7.02905 5.39899C7.03564 5.3216 7.02415 5.24374 6.99546 5.17156C6.96678 5.09938 6.92171 5.03486 6.86379 4.98309C6.80588 4.93133 6.73671 4.89374 6.66176 4.87329Z" fill="#A7A7A7"/>
</svg>
