<svg width="32" height="33" viewBox="0 0 32 33" fill="none" xmlns="http://www.w3.org/2000/svg">
<path d="M14.5003 23.5013V26.5013H4.00012V23.5013H14.5003ZM28.0005 28.5014V31.5014H17.5003V28.5014H28.0005Z" fill="#757575"/>
<path d="M25.0004 8.50101V15.0011H22.0004V7.00099C22.0004 6.60316 22.1584 6.22162 22.4397 5.94031C22.721 5.659 23.1026 5.50097 23.5004 5.50097C23.8982 5.50097 24.2798 5.659 24.5611 5.94031C24.8424 6.22162 25.0004 6.60316 25.0004 7.00099V8.50101ZM22.0004 8.50101V15.0011H19.0003V8.50101C19.0003 8.10318 19.1584 7.72165 19.4397 7.44034C19.721 7.15903 20.1025 7.00099 20.5003 7.00099C20.8982 7.00099 21.2797 7.15903 21.561 7.44034C21.8423 7.72165 22.0004 8.10318 22.0004 8.50101ZM13.0002 4.50095V10.001H10.0002V3.50093C10.0002 3.1031 10.1582 2.72157 10.4395 2.44026C10.7208 2.15895 11.1024 2.00091 11.5002 2.00091C11.898 2.00091 12.2796 2.15895 12.5609 2.44026C12.8422 2.72157 13.0002 3.1031 13.0002 3.50093V4.50095ZM10.0002 3.50093V10.001H7.00012V2.00091C7.00012 1.60308 7.15816 1.22154 7.43947 0.940232C7.72078 0.658923 8.10232 0.500885 8.50015 0.500885C8.89798 0.500885 9.27951 0.658923 9.56082 0.940232C9.84213 1.22154 10.0002 1.60308 10.0002 2.00091V3.50093Z" fill="#757575"/>
<path d="M7.00011 10.001H13.0002V4.50096C13.0002 4.10312 13.1582 3.72159 13.4396 3.44028C13.7209 3.15897 14.1024 3.00093 14.5002 3.00093C14.8981 3.00093 15.2796 3.15897 15.5609 3.44028C15.8422 3.72159 16.0003 4.10312 16.0003 4.50096V21.5012C16.0003 21.5012 16.0003 23.5013 14.5002 23.5013H4.00006C4.00006 23.5013 2.00003 23.5013 2.00003 21.5012C2.00003 19.5012 0.500002 15.5011 0.500002 13.5011V9.75604C0.499491 9.47429 0.593956 9.20058 0.768143 8.97912C0.94233 8.75766 1.18607 8.60137 1.46002 8.53549C1.73396 8.4696 2.02211 8.49797 2.27795 8.61601C2.53379 8.73404 2.74238 8.93486 2.87004 9.18603C3.31505 10.071 4.00006 11.6511 4.00006 13.0011V3.50094C4.00006 3.10311 4.1581 2.72157 4.43941 2.44026C4.72071 2.15895 5.10225 2.00092 5.50008 2.00092C5.89791 2.00092 6.27945 2.15895 6.56076 2.44026C6.84207 2.72157 7.00011 3.10311 7.00011 3.50094V10.001ZM28.0004 8.50102V18.0012C28.0004 16.6512 28.6855 15.0711 29.1305 14.1861C29.2581 13.9349 29.4667 13.7341 29.7226 13.6161C29.9784 13.4981 30.2665 13.4697 30.5405 13.5356C30.8144 13.6015 31.0582 13.7577 31.2324 13.9792C31.4065 14.2007 31.501 14.4744 31.5005 14.7561V18.5012C31.5005 20.5012 30.0005 24.5013 30.0005 26.5013C30.0005 28.5013 28.0004 28.5013 28.0004 28.5013H17.5003C16.0003 28.5013 16.0003 26.5013 16.0003 26.5013V9.50104C16.0003 9.10321 16.1583 8.72167 16.4396 8.44036C16.7209 8.15905 17.1024 8.00101 17.5003 8.00101C17.8981 8.00101 18.2796 8.15905 18.561 8.44036C18.8423 8.72167 19.0003 9.10321 19.0003 9.50104V15.0011H25.0004V8.50102C25.0004 8.10319 25.1584 7.72165 25.4397 7.44034C25.7211 7.15903 26.1026 7.001 26.5004 7.001C26.8983 7.001 27.2798 7.15903 27.5611 7.44034C27.8424 7.72165 28.0004 8.10319 28.0004 8.50102Z" fill="#757575"/>
<path d="M31.5005 14.7561V18.5012C31.5005 20.5012 30.0005 24.5013 30.0005 26.5013C30.0005 28.5013 28.0004 28.5013 28.0004 28.5013H17.5003C16.0002 28.5013 16.0002 26.5013 16.0002 26.5013V9.50103C16.0002 9.1032 16.1583 8.72166 16.4396 8.44035C16.7209 8.15904 17.1024 8.00101 17.5003 8.00101C17.8981 8.00101 18.2796 8.15904 18.5609 8.44035C18.8423 8.72166 19.0003 9.1032 19.0003 9.50103V10.001H18.5003C18.2353 10.0018 17.9814 10.1074 17.794 10.2948C17.6067 10.4822 17.5011 10.7361 17.5003 11.0011V25.5013C17.5011 25.7663 17.6067 26.0202 17.794 26.2075C17.9814 26.3949 18.2353 26.5005 18.5003 26.5013H26.8604C27.3229 26.5009 27.7709 26.3403 28.1283 26.0468C28.4857 25.7532 28.7303 25.3449 28.8205 24.8913L29.8655 19.6812C29.9557 19.2284 30.0009 18.7678 30.0005 18.3062V16.0011C29.9997 15.7362 29.8941 15.4823 29.7067 15.2949C29.5193 15.1075 29.2654 15.0019 29.0005 15.0011H28.7505C28.8855 14.6961 29.0155 14.4161 29.1305 14.1861C29.2581 13.9349 29.4667 13.7341 29.7225 13.6161C29.9784 13.498 30.2665 13.4697 30.5405 13.5356C30.8144 13.6014 31.0582 13.7577 31.2324 13.9792C31.4065 14.2007 31.501 14.4744 31.5005 14.7561Z" fill="#757575"/>
<path d="M30.0005 16.0011V18.3062C30.0009 18.7679 29.9557 19.2284 29.8655 19.6812L28.8205 24.8913C28.7303 25.3449 28.4857 25.7532 28.1283 26.0468C27.771 26.3403 27.3229 26.5009 26.8604 26.5013H22.5004V20.0012C22.5004 18.6862 24.8804 18.2362 26.5054 18.0812C27.3554 18.0012 28.0005 18.0012 28.0005 18.0012C28.057 16.9625 28.3116 15.9442 28.7505 15.0011H29.0005C29.2654 15.0019 29.5193 15.1075 29.7067 15.2949C29.8941 15.4823 29.9997 15.7362 30.0005 16.0011Z" fill="#AFAFAF"/>
<path d="M28.0004 8.50103V18.0012C28.0004 18.0012 27.3554 18.0012 26.5054 18.0812L26.5004 18.0012V10.0011C26.4996 9.73608 26.394 9.48218 26.2066 9.29481C26.0192 9.10744 25.7654 9.00183 25.5004 9.00104H25.0004V8.50103C25.0004 8.1032 25.1584 7.72166 25.4397 7.44035C25.721 7.15904 26.1026 7.00101 26.5004 7.00101C26.8982 7.00101 27.2798 7.15904 27.5611 7.44035C27.8424 7.72166 28.0004 8.1032 28.0004 8.50103Z" fill="#757575"/>
<path d="M26.5004 18.0012L26.5054 18.0812C24.8804 18.2362 22.5003 18.6862 22.5003 20.0012V26.5013H18.5003C18.2353 26.5005 17.9814 26.3949 17.794 26.2075C17.6066 26.0202 17.501 25.7663 17.5002 25.5013V15.0011H26.5004V18.0012Z" fill="#AFAFAF"/>
<path d="M25.0004 9.00103V15.0011H22.0004V8.50102C22.0012 8.23605 22.1068 7.98215 22.2941 7.79478C22.4815 7.60741 22.7354 7.5018 23.0004 7.50101H24.0004C24.2654 7.5018 24.5193 7.60741 24.7066 7.79478C24.894 7.98215 24.9996 8.23605 25.0004 8.50102V9.00103Z" fill="#AFAFAF"/>
<path d="M25.0004 7.001V8.50103C24.9996 8.23605 24.894 7.98215 24.7066 7.79478C24.5193 7.60741 24.2654 7.5018 24.0004 7.50101H23.0004C22.7354 7.5018 22.4815 7.60741 22.2941 7.79478C22.1068 7.98215 22.0012 8.23605 22.0004 8.50103V7.001C22.0004 6.60317 22.1584 6.22163 22.4397 5.94032C22.721 5.65901 23.1026 5.50098 23.5004 5.50098C23.8982 5.50098 24.2798 5.65901 24.5611 5.94032C24.8424 6.22163 25.0004 6.60317 25.0004 7.001Z" fill="#757575"/>
<path d="M22.0004 10.0011V15.0011H19.0004V10.0011C19.0023 9.73644 19.1083 9.48322 19.2954 9.2961C19.4825 9.10899 19.7358 9.003 20.0004 9.00104H21.0004C21.2654 9.00183 21.5193 9.10744 21.7066 9.29481C21.894 9.48218 21.9996 9.73608 22.0004 10.0011Z" fill="#AFAFAF"/>
<path d="M22.0004 9.50105V10.0011C21.9996 9.73608 21.894 9.48218 21.7066 9.29481C21.5193 9.10744 21.2654 9.00183 21.0004 9.00104H20.0004C19.7358 9.003 19.4825 9.10899 19.2954 9.29611C19.1083 9.48322 19.0023 9.73644 19.0004 10.0011V8.50103C19.0004 8.1032 19.1584 7.72166 19.4397 7.44035C19.721 7.15904 20.1026 7.00101 20.5004 7.00101C20.8982 7.00101 21.2798 7.15904 21.5611 7.44035C21.8424 7.72166 22.0004 8.1032 22.0004 8.50103V9.50105Z" fill="#757575"/>
<path d="M19.0003 10.001V15.0011H17.5002V11.0011C17.501 10.7361 17.6066 10.4822 17.794 10.2948C17.9814 10.1074 18.2353 10.0018 18.5003 10.001H19.0003Z" fill="#AFAFAF"/>
<path d="M29.9235 15.6191C29.996 15.4631 30.066 15.315 30.1305 15.186C30.2349 14.98 30.3944 14.8069 30.5912 14.686C30.788 14.5651 31.0145 14.501 31.2455 14.501C31.3233 14.5014 31.4008 14.5093 31.477 14.5245C31.4302 14.2666 31.3035 14.03 31.1148 13.8481C30.9261 13.6661 30.685 13.5481 30.4256 13.5107C30.1662 13.4732 29.9016 13.5183 29.6691 13.6395C29.4367 13.7607 29.2483 13.9519 29.1305 14.186C29.0155 14.416 28.8855 14.696 28.7505 15.001H29.0005C29.1981 15.0017 29.3911 15.0608 29.5553 15.1707C29.7195 15.2806 29.8476 15.4366 29.9235 15.6191Z" fill="#757575"/>
<path d="M23.5004 21.0012C23.5004 19.6862 25.8804 19.2362 27.5054 19.0812C28.3555 19.0012 29.0005 19.0012 29.0005 19.0012C29.057 17.9625 29.3116 16.9442 29.7505 16.0011C29.8095 15.8676 29.867 15.7411 29.9235 15.6191C29.8476 15.4367 29.7195 15.2807 29.5553 15.1708C29.3911 15.0608 29.1981 15.0018 29.0005 15.0011H28.7505C28.3116 15.9442 28.057 16.9625 28.0005 18.0012C28.0005 18.0012 27.3554 18.0012 26.5054 18.0812C24.8804 18.2362 22.5004 18.6862 22.5004 20.0012V26.5013H23.5004V21.0012Z" fill="#AFAFAF"/>
<path d="M26.5004 10.001V15.0011H25.0004V9.00103H25.5004C25.7654 9.00182 26.0193 9.10743 26.2067 9.2948C26.394 9.48217 26.4996 9.73607 26.5004 10.001ZM23.0004 7.50101H23.5004V12.5011C23.5004 12.7663 23.6057 13.0207 23.7933 13.2082C23.9808 13.3957 24.2352 13.5011 24.5004 13.5011H25.0004V15.0011H22.0004V8.50102C22.0012 8.23605 22.1068 7.98215 22.2941 7.79478C22.4815 7.60741 22.7354 7.5018 23.0004 7.50101Z" fill="#AFAFAF"/>
<path d="M22.4404 5.94098C22.5794 5.8015 22.7446 5.69083 22.9265 5.61532C23.1084 5.53982 23.3034 5.50096 23.5004 5.50098V7.50101H23.0004C22.7354 7.5018 22.4815 7.60741 22.2941 7.79478C22.1068 7.98215 22.0012 8.23605 22.0004 8.50103V7.001C22.0003 6.80405 22.0392 6.60904 22.1147 6.42713C22.1902 6.24523 22.3009 6.08003 22.4404 5.94098Z" fill="#757575"/>
<path d="M20.0004 9.00104H20.5004V12.5011C20.5004 12.7663 20.6057 13.0207 20.7933 13.2082C20.9808 13.3958 21.2352 13.5011 21.5004 13.5011H22.0004V15.0011H19.0004V10.0011C19.0012 9.73608 19.1068 9.48218 19.2941 9.29481C19.4815 9.10744 19.7354 9.00183 20.0004 9.00104Z" fill="#AFAFAF"/>
<path d="M19.4404 7.44101C19.5794 7.30153 19.7446 7.19086 19.9265 7.11535C20.1084 7.03985 20.3034 7.00099 20.5004 7.00101V9.00104H20.0004C19.7354 9.00183 19.4815 9.10744 19.2941 9.29481C19.1068 9.48218 19.0012 9.73608 19.0004 10.0011V8.50103C19.0003 8.30408 19.0392 8.10907 19.1147 7.92717C19.1902 7.74526 19.3009 7.58006 19.4404 7.44101Z" fill="#757575"/>
<path d="M28.78 25.0303C28.6657 25.4521 28.4158 25.8246 28.069 26.0905C27.7221 26.3563 27.2974 26.5007 26.8604 26.5014H18.5003C18.2353 26.5006 17.9814 26.395 17.794 26.2076C17.6067 26.0202 17.5011 25.7663 17.5003 25.5013V25.2458C17.2853 25.4115 17.0216 25.5014 16.7503 25.5014C16.4789 25.5014 16.2152 25.4115 16.0002 25.2458V26.5014C16.0002 26.5014 16.0002 28.5014 17.5003 28.5014H28.0004C28.0004 28.5014 30.0005 28.5014 30.0005 26.5014C30.0076 26.1475 30.041 25.7947 30.1005 25.4458C29.8645 25.52 29.6115 25.5199 29.3756 25.4456C29.1397 25.3713 28.9323 25.2263 28.7815 25.0303H28.78ZM26.5004 14.7457V18.0012L26.5054 18.0812C27.3554 18.0012 28.0004 18.0012 28.0004 18.0012V14.7457C27.7855 14.9113 27.5218 15.0012 27.2504 15.0012C26.9791 15.0012 26.7153 14.9113 26.5004 14.7457Z" fill="#757575"/>
<path d="M17.5003 15.7511C17.5003 15.3369 17.1645 15.0011 16.7503 15.0011C16.336 15.0011 16.0002 15.3369 16.0002 15.7511V23.2513C16.0002 23.6655 16.336 24.0013 16.7503 24.0013C17.1645 24.0013 17.5003 23.6655 17.5003 23.2513V15.7511Z" fill="#757575"/>
<path d="M17.5003 12.2511C17.5003 11.8369 17.1645 11.5011 16.7503 11.5011C16.336 11.5011 16.0002 11.8369 16.0002 12.2511V13.2511C16.0002 13.6653 16.336 14.0011 16.7503 14.0011C17.1645 14.0011 17.5003 13.6653 17.5003 13.2511V12.2511Z" fill="#757575"/>
<path d="M16.0003 9.50105V21.5012C16.0003 21.5012 16.0003 23.5013 14.5002 23.5013H4.00006C4.00006 23.5013 2.00003 23.5013 2.00003 21.5012C2.00003 19.5012 0.500002 15.5011 0.500002 13.5011V9.75606C0.499491 9.4743 0.593956 9.2006 0.768143 8.97914C0.94233 8.75768 1.18607 8.60139 1.46002 8.5355C1.73396 8.46962 2.02211 8.49798 2.27795 8.61602C2.53379 8.73406 2.74238 8.93487 2.87004 9.18605C2.98504 9.41605 3.11504 9.69605 3.25005 10.0011H3.00004C2.73507 10.0019 2.48117 10.1075 2.2938 10.2948C2.10643 10.4822 2.00082 10.7361 2.00003 11.0011V13.3061C1.99962 13.7678 2.04484 14.2284 2.13503 14.6811L3.18005 19.8912C3.27023 20.3448 3.51482 20.7531 3.87218 21.0467C4.22955 21.3402 4.6776 21.5009 5.14008 21.5012H13.5002C13.7652 21.5005 14.0191 21.3948 14.2065 21.2075C14.3938 21.0201 14.4994 20.7662 14.5002 20.5012V6.00099C14.4994 5.73602 14.3938 5.48212 14.2065 5.29475C14.0191 5.10738 13.7652 5.00177 13.5002 5.00098H13.0002V4.50097C13.0002 4.10314 13.1582 3.7216 13.4396 3.44029C13.7209 3.15898 14.1024 3.00095 14.5002 3.00095C14.8981 3.00095 15.2796 3.15898 15.5609 3.44029C15.8422 3.7216 16.0003 4.10314 16.0003 4.50097V9.50105Z" fill="#757575"/>
<path d="M14.5003 10.001V20.5012C14.4995 20.7662 14.3939 21.0201 14.2065 21.2075C14.0191 21.3948 13.7652 21.5004 13.5002 21.5012H9.50018V15.0011C9.50018 13.6861 7.12014 13.2361 5.49512 13.0811L5.50012 13.0011V10.001H14.5003Z" fill="#AFAFAF"/>
<path d="M14.5003 6.00099V10.0011H13.0002V5.00098H13.5003C13.7652 5.00177 14.0191 5.10738 14.2065 5.29475C14.3939 5.48212 14.4995 5.73602 14.5003 6.00099Z" fill="#AFAFAF"/>
<path d="M13.0002 5.00096V10.001H10.0001V5.00096C10.0009 4.73598 10.1065 4.48209 10.2939 4.29472C10.4813 4.10735 10.7352 4.00174 11.0001 4.00095H12.0002C12.2648 4.00291 12.518 4.1089 12.7051 4.29601C12.8922 4.48313 12.9982 4.73635 13.0002 5.00096Z" fill="#AFAFAF"/>
<path d="M13.0002 4.50096V5.00096C12.9982 4.73635 12.8922 4.48313 12.7051 4.29601C12.518 4.1089 12.2648 4.00291 12.0002 4.00095H11.0001C10.7352 4.00174 10.4813 4.10735 10.2939 4.29472C10.1065 4.48209 10.0009 4.73599 10.0001 5.00096V3.50094C10.0001 3.10311 10.1582 2.72157 10.4395 2.44026C10.7208 2.15895 11.1023 2.00092 11.5001 2.00092C11.898 2.00092 12.2795 2.15895 12.5608 2.44026C12.8421 2.72157 13.0002 3.10311 13.0002 3.50094V4.50096Z" fill="#757575"/>
<path d="M10.0002 5.00096V10.001H7.00012V3.50093C7.00091 3.23595 7.10653 2.98206 7.29389 2.79469C7.48126 2.60732 7.73516 2.50171 8.00014 2.50092H9.00015C9.26513 2.50171 9.51903 2.60732 9.7064 2.79469C9.89377 2.98206 9.99938 3.23595 10.0002 3.50093V5.00096Z" fill="#AFAFAF"/>
<path d="M10.0002 2.00091V3.50093C9.99938 3.23596 9.89377 2.98206 9.7064 2.79469C9.51903 2.60732 9.26513 2.50171 9.00015 2.50092H8.00014C7.73516 2.50171 7.48126 2.60732 7.29389 2.79469C7.10653 2.98206 7.00091 3.23596 7.00012 3.50093V2.00091C7.00012 1.60308 7.15816 1.22154 7.43947 0.940232C7.72078 0.658923 8.10232 0.500885 8.50015 0.500885C8.89798 0.500885 9.27951 0.658923 9.56082 0.940232C9.84213 1.22154 10.0002 1.60308 10.0002 2.00091Z" fill="#757575"/>
<path d="M9.50012 15.0011V21.5012H5.14005C4.67758 21.5009 4.22953 21.3402 3.87216 21.0467C3.5148 20.7531 3.2702 20.3448 3.18002 19.8912L2.135 14.6811C2.04481 14.2283 1.99959 13.7678 2 13.3061V11.0011C2.00079 10.7361 2.10641 10.4822 2.29377 10.2948C2.48114 10.1074 2.73504 10.0018 3.00002 10.001H3.25002C3.68893 10.9441 3.94351 11.9624 4.00004 13.0011C4.00004 13.0011 4.64505 13.0011 5.49506 13.0811C7.12009 13.2361 9.50012 13.6861 9.50012 15.0011Z" fill="#AFAFAF"/>
<path d="M7.00015 4.00095V10.001H5.50012V5.00096C5.50091 4.73598 5.60653 4.48209 5.79389 4.29472C5.98126 4.10735 6.23516 4.00174 6.50014 4.00095H7.00015Z" fill="#AFAFAF"/>
<path d="M7.00017 3.50094V4.00095H6.50016C6.23519 4.00174 5.98129 4.10735 5.79392 4.29472C5.60655 4.48209 5.50094 4.73599 5.50015 5.00096V13.0011L5.49515 13.0811C4.64513 13.0011 4.00012 13.0011 4.00012 13.0011V3.50094C4.00012 3.10311 4.15816 2.72157 4.43947 2.44026C4.72078 2.15895 5.10232 2.00092 5.50015 2.00092C5.89798 2.00092 6.27951 2.15895 6.56082 2.44026C6.84213 2.72157 7.00017 3.10311 7.00017 3.50094Z" fill="#757575"/>
<path d="M5.47668 5.00096V10.001H6.97671V4.00095H6.4767C6.21172 4.00174 5.95782 4.10735 5.77046 4.29472C5.58309 4.48209 5.47748 4.73598 5.47668 5.00096Z" fill="#AFAFAF"/>
<path d="M2.05353 10.619C1.98694 10.4735 1.91793 10.3291 1.84652 10.186C1.74215 9.97997 1.58276 9.80693 1.38603 9.68601C1.1893 9.5651 0.962921 9.50104 0.732004 9.50094C0.654098 9.50138 0.576411 9.50925 0.5 9.52445C0.546833 9.26655 0.673548 9.02991 0.862227 8.84797C1.05091 8.66603 1.292 8.548 1.55143 8.51058C1.81085 8.47316 2.07548 8.51823 2.30789 8.63942C2.54029 8.76062 2.72873 8.9518 2.84654 9.18594C2.96154 9.41594 3.09154 9.69595 3.22654 10.001H2.97654C2.77895 10.0017 2.58597 10.0608 2.42178 10.1707C2.25759 10.2806 2.12949 10.4366 2.05353 10.619Z" fill="#757575"/>
<path d="M8.47669 16.0011C8.47669 14.6861 6.09665 14.2361 4.47163 14.0811C3.62161 14.0011 2.9766 14.0011 2.9766 14.0011C2.92008 12.9624 2.6655 11.9441 2.22659 11.0011C2.16759 10.8676 2.11009 10.741 2.05359 10.619C2.12955 10.4366 2.25766 10.2807 2.42184 10.1708C2.58603 10.0608 2.77901 10.0018 2.9766 10.001H3.22661C3.66552 10.9441 3.92009 11.9624 3.97662 13.0011C3.97662 13.0011 4.62163 13.0011 5.47164 13.0811C7.09667 13.2361 9.47671 13.6861 9.47671 15.0011V21.5012H8.47669V16.0011Z" fill="#AFAFAF"/>
<path d="M8.00014 2.50092H8.50015V7.501C8.50015 7.76622 8.60551 8.02058 8.79304 8.20811C8.98058 8.39565 9.23494 8.50101 9.50016 8.50101H10.0002V10.001H7.00012V3.50093C7.00091 3.23595 7.10653 2.98206 7.29389 2.79469C7.48126 2.60732 7.73516 2.50171 8.00014 2.50092Z" fill="#AFAFAF"/>
<path d="M7.44013 0.940892C7.57917 0.801406 7.74438 0.690738 7.92628 0.615232C8.10818 0.539726 8.3032 0.500868 8.50015 0.500885V2.50092H8.00014C7.73516 2.50171 7.48126 2.60732 7.29389 2.79469C7.10653 2.98206 7.00091 3.23596 7.00012 3.50093V2.00091C7.0001 1.80396 7.03896 1.60894 7.11447 1.42704C7.18997 1.24514 7.30064 1.07993 7.44013 0.940892Z" fill="#757575"/>
<path d="M11.0001 4.00095H11.5001V7.501C11.5001 7.76622 11.6055 8.02058 11.793 8.20812C11.9806 8.39566 12.2349 8.50102 12.5002 8.50102H13.0002V10.001H10.0001V5.00096C10.0009 4.73598 10.1065 4.48209 10.2939 4.29472C10.4813 4.10735 10.7352 4.00174 11.0001 4.00095Z" fill="#AFAFAF"/>
<path d="M10.4401 2.44092C10.5792 2.30144 10.7444 2.19077 10.9263 2.11526C11.1082 2.03976 11.3032 2.0009 11.5001 2.00092V4.00095H11.0001C10.7352 4.00174 10.4813 4.10735 10.2939 4.29472C10.1065 4.48209 10.0009 4.73599 10.0001 5.00096V3.50094C10.0001 3.30399 10.039 3.10897 10.1145 2.92707C10.19 2.74517 10.3006 2.57997 10.4401 2.44092Z" fill="#757575"/>
<path d="M3.19699 20.0302C3.31146 20.452 3.5614 20.8245 3.90834 21.0903C4.25528 21.3561 4.67996 21.5005 5.11702 21.5013H13.4767C13.7416 21.5005 13.9955 21.3949 14.1829 21.2075C14.3703 21.0201 14.4759 20.7662 14.4767 20.5012V20.2457C14.6916 20.4114 14.9553 20.5013 15.2267 20.5013C15.498 20.5013 15.7618 20.4114 15.9767 20.2457V21.5013C15.9767 21.5013 15.9767 23.5013 14.4767 23.5013H3.9765C3.9765 23.5013 1.97647 23.5013 1.97647 21.5013C1.96932 21.1474 1.93589 20.7946 1.87646 20.4457C2.11241 20.5199 2.36545 20.5198 2.60135 20.4455C2.83725 20.3712 3.04464 20.2262 3.19549 20.0302H3.19699ZM5.47652 9.74557V13.0011L5.47152 13.0811C4.62151 13.0011 3.9765 13.0011 3.9765 13.0011V9.74557C4.19142 9.91124 4.45515 10.0011 4.72651 10.0011C4.99787 10.0011 5.2616 9.91124 5.47652 9.74557Z" fill="#757575"/>
<path d="M15.9768 10.751C15.9768 10.3368 15.641 10.001 15.2268 10.001C14.8126 10.001 14.4768 10.3368 14.4768 10.751V18.2512C14.4768 18.6654 14.8126 19.0012 15.2268 19.0012C15.641 19.0012 15.9768 18.6654 15.9768 18.2512V10.751Z" fill="#757575"/>
<path d="M15.9768 7.25099C15.9768 6.83677 15.641 6.50098 15.2268 6.50098C14.8126 6.50098 14.4768 6.83677 14.4768 7.25099V8.251C14.4768 8.66523 14.8126 9.00102 15.2268 9.00102C15.641 9.00102 15.9768 8.66523 15.9768 8.251V7.25099Z" fill="#757575"/>
<path d="M19.5004 31.5014V30.5014C19.5004 30.2362 19.6057 29.9818 19.7933 29.7943C19.9808 29.6067 20.2352 29.5014 20.5004 29.5014H28.0005V28.5014H17.5003V31.5014H19.5004ZM12.5003 26.5013V25.5013C12.5003 25.2361 12.3949 24.9817 12.2074 24.7942C12.0198 24.6067 11.7655 24.5013 11.5002 24.5013H4.00012V23.5013H14.5003V26.5013H12.5003Z" fill="#757575"/>
<path d="M27.0004 28.5013H26.0004C25.7242 28.5013 25.5004 28.7252 25.5004 29.0014C25.5004 29.2775 25.7242 29.5014 26.0004 29.5014H27.0004C27.2765 29.5014 27.5004 29.2775 27.5004 29.0014C27.5004 28.7252 27.2765 28.5013 27.0004 28.5013Z" fill="#757575"/>
<path d="M24.5004 28.5013H20.5004C20.2242 28.5013 20.0004 28.7252 20.0004 29.0014C20.0004 29.2775 20.2242 29.5014 20.5004 29.5014H24.5004C24.7766 29.5014 25.0004 29.2775 25.0004 29.0014C25.0004 28.7252 24.7766 28.5013 24.5004 28.5013Z" fill="#757575"/>
<path d="M6.00015 23.5013H5.00013C4.72398 23.5013 4.50012 23.7251 4.50012 24.0013C4.50012 24.2774 4.72398 24.5013 5.00013 24.5013H6.00015C6.27629 24.5013 6.50015 24.2774 6.50015 24.0013C6.50015 23.7251 6.27629 23.5013 6.00015 23.5013Z" fill="#757575"/>
<path d="M11.5002 23.5013H7.50013C7.22398 23.5013 7.00012 23.7251 7.00012 24.0013C7.00012 24.2774 7.22398 24.5013 7.50013 24.5013H11.5002C11.7763 24.5013 12.0002 24.2774 12.0002 24.0013C12.0002 23.7251 11.7763 23.5013 11.5002 23.5013Z" fill="#757575"/>
<path d="M30.2455 13.001C29.922 13.0019 29.605 13.0921 29.3294 13.2616C29.0538 13.431 28.8303 13.6732 28.6835 13.9615C28.6235 14.081 28.562 14.207 28.5005 14.338V8.50094C28.5027 8.14712 28.4104 7.79912 28.2332 7.49288C28.056 7.18664 27.8002 6.93326 27.4924 6.7589C27.1845 6.58455 26.8356 6.49555 26.4819 6.50109C26.1281 6.50663 25.7822 6.60651 25.4799 6.79041C25.4305 6.29985 25.2007 5.84512 24.8351 5.51441C24.4694 5.1837 23.9939 5.00058 23.5009 5.00058C23.0078 5.00058 22.5324 5.1837 22.1667 5.51441C21.801 5.84512 21.5712 6.29985 21.5219 6.79041C21.2141 6.6025 20.8609 6.50238 20.5003 6.50091C20.0862 6.50223 19.6827 6.6323 19.3458 6.87311C19.0089 7.11391 18.7551 7.45353 18.6198 7.84493C18.3097 7.6327 17.9453 7.51367 17.5698 7.50188C17.1942 7.4901 16.8231 7.58606 16.5003 7.77843V4.50087C16.5 4.13795 16.401 3.78193 16.2139 3.47097C16.0268 3.16 15.7586 2.90582 15.438 2.73565C15.1175 2.56548 14.7566 2.48574 14.3942 2.50498C14.0318 2.52421 13.6815 2.6417 13.3807 2.84485C13.2454 2.45345 12.9917 2.11383 12.6547 1.87302C12.3178 1.63222 11.9143 1.50215 11.5002 1.50083C11.1397 1.50215 10.7864 1.6021 10.4787 1.78983C10.4293 1.29927 10.1995 0.844537 9.83381 0.513826C9.46814 0.183114 8.99268 0 8.49964 0C8.0066 0 7.53114 0.183114 7.16547 0.513826C6.7998 0.844537 6.56999 1.29927 6.52061 1.78983C6.21793 1.60808 5.87242 1.50995 5.51939 1.50547C5.16636 1.50099 4.81847 1.59032 4.51128 1.76434C4.20408 1.93835 3.9486 2.19081 3.77093 2.49591C3.59327 2.801 3.49979 3.1478 3.50006 3.50086V9.33745C3.44088 9.21165 3.38004 9.08664 3.31756 8.96245C3.1396 8.61038 2.84811 8.32863 2.4902 8.16275C2.13229 7.99686 1.72889 7.95654 1.34523 8.04831C0.961571 8.14008 0.620076 8.35856 0.375964 8.66844C0.131851 8.97832 -0.000608682 9.36148 2.10285e-06 9.75596V13.501C0.108481 14.8981 0.364921 16.2797 0.765014 17.6226C1.13876 18.8877 1.38499 20.187 1.50003 21.5012C1.48746 21.8328 1.54354 22.1635 1.66473 22.4725C1.78592 22.7815 1.96963 23.0622 2.20433 23.2969C2.43903 23.5316 2.71968 23.7153 3.02868 23.8365C3.33768 23.9577 3.66838 24.0138 4.00007 24.0012H14.0002V26.0012H4.50007V23.968H3.50006V26.5012C3.50006 26.6338 3.55274 26.761 3.64651 26.8548C3.74028 26.9486 3.86746 27.0012 4.00007 27.0012H14.5002C14.6328 27.0012 14.76 26.9486 14.8538 26.8548C14.9476 26.761 15.0002 26.6338 15.0002 26.5012V23.9377C15.1779 23.8922 15.3468 23.8177 15.5003 23.7172V26.5012C15.5003 27.2662 15.8293 28.6323 17.0003 28.9378V31.5013C17.0003 31.6339 17.053 31.7611 17.1467 31.8549C17.2405 31.9486 17.3677 32.0013 17.5003 32.0013H28.0005C28.1331 32.0013 28.2602 31.9486 28.354 31.8549C28.4478 31.7611 28.5005 31.6339 28.5005 31.5013V29.0013H27.5004V31.0013H18.0003V29.0013H28.0005C28.3321 29.0138 28.6628 28.9578 28.9718 28.8366C29.2808 28.7154 29.5615 28.5317 29.7962 28.297C30.0309 28.0623 30.2146 27.7816 30.3358 27.4726C30.457 27.1636 30.5131 26.8329 30.5005 26.5012C30.6155 25.1871 30.8618 23.8878 31.2355 22.6227C31.6356 21.2797 31.892 19.8982 32.0005 18.5011V14.756C31.9999 14.2908 31.8147 13.8448 31.4858 13.5158C31.1568 13.1868 30.7108 13.0017 30.2455 13.001ZM26.5004 7.50092C26.7657 7.50092 27.02 7.60628 27.2076 7.79382C27.3951 7.98136 27.5004 8.23572 27.5004 8.50094V17.5096C25.9004 17.5596 22.0004 17.8986 22.0004 20.0011V25.0012H23.0004V20.0011C23.0004 18.9796 25.9839 18.5011 28.0005 18.5011C28.1331 18.5011 28.2602 18.4484 28.354 18.3547C28.4478 18.2609 28.5005 18.1337 28.5005 18.0011C28.5434 17.1451 28.7397 16.3037 29.08 15.5171C29.1962 15.5345 29.3023 15.5929 29.3794 15.6816C29.4565 15.7703 29.4994 15.8836 29.5005 16.0011V18.3081C29.5003 18.736 29.4581 19.1629 29.3745 19.5826L28.332 24.7952C28.2632 25.1349 28.0793 25.4404 27.8112 25.6602C27.5432 25.8799 27.2075 26.0004 26.8609 26.0012H18.5003C18.3677 26.0012 18.2405 25.9485 18.1467 25.8548C18.053 25.761 18.0003 25.6338 18.0003 25.5012V15.5011H26.0004V17.0011H27.0004V10.001C27.0004 9.60313 26.8424 9.2216 26.5611 8.94029C26.2798 8.65898 25.8982 8.50094 25.5004 8.50094C25.5004 8.23572 25.6058 7.98136 25.7933 7.79382C25.9809 7.60628 26.2352 7.50092 26.5004 7.50092ZM26.0004 14.501H25.5004V9.50096C25.633 9.50096 25.7602 9.55363 25.854 9.6474C25.9477 9.74117 26.0004 9.86835 26.0004 10.001V14.501ZM24.5004 9.00095V14.501H22.5004V8.50094C22.5004 8.36833 22.553 8.24115 22.6468 8.14738C22.7406 8.05361 22.8678 8.00093 23.0004 8.00093H24.0004C24.133 8.00093 24.2602 8.05361 24.354 8.14738C24.4477 8.24115 24.5004 8.36833 24.5004 8.50094V9.00095ZM21.5004 14.501H19.5003V10.001C19.5003 9.86835 19.553 9.74117 19.6468 9.6474C19.7405 9.55363 19.8677 9.50096 20.0003 9.50096H21.0003C21.133 9.50096 21.2601 9.55363 21.3539 9.6474C21.4477 9.74117 21.5004 9.86835 21.5004 10.001V14.501ZM18.5003 14.501H18.0003V11.001C18.0003 10.8684 18.053 10.7412 18.1467 10.6474C18.2405 10.5537 18.3677 10.501 18.5003 10.501V14.501ZM23.5004 6.0009C23.7656 6.0009 24.02 6.10626 24.2075 6.2938C24.395 6.48134 24.5004 6.73569 24.5004 7.00092V7.09292C24.3403 7.0337 24.1711 7.00257 24.0004 7.00092H23.0004C22.8297 7.00257 22.6605 7.0337 22.5004 7.09292V7.00092C22.5004 6.73569 22.6057 6.48134 22.7933 6.2938C22.9808 6.10626 23.2352 6.0009 23.5004 6.0009ZM20.5003 7.50092C20.7656 7.50092 21.0199 7.60628 21.2075 7.79382C21.395 7.98136 21.5004 8.23572 21.5004 8.50094V8.59294C21.3402 8.53372 21.1711 8.5026 21.0003 8.50094H20.0003C19.8299 8.50156 19.6608 8.53133 19.5003 8.58894V8.50094C19.5003 8.23572 19.6057 7.98136 19.7932 7.79382C19.9808 7.60628 20.2351 7.50092 20.5003 7.50092ZM14.0002 9.50096H13.5002V5.50089C13.6328 5.50089 13.76 5.55357 13.8538 5.64734C13.9476 5.74111 14.0002 5.86829 14.0002 6.0009V9.50096ZM6.50011 9.50096H6.0001V5.00088C6.0001 4.86827 6.05278 4.74109 6.14655 4.64732C6.24032 4.55355 6.3675 4.50087 6.50011 4.50087V9.50096ZM7.50012 4.00087V3.50086C7.50012 3.36825 7.5528 3.24107 7.64657 3.1473C7.74034 3.05353 7.86752 3.00085 8.00013 3.00085H9.00015C9.13276 3.00085 9.25994 3.05353 9.35371 3.1473C9.44748 3.24107 9.50016 3.36825 9.50016 3.50086V9.50096H7.50012V4.00087ZM10.5002 5.00088C10.5002 4.86827 10.5529 4.74109 10.6466 4.64732C10.7404 4.55355 10.8676 4.50087 11.0002 4.50087H12.0002C12.1328 4.50087 12.26 4.55355 12.3538 4.64732C12.4475 4.74109 12.5002 4.86827 12.5002 5.00088V9.50096H10.5002V5.00088ZM11.5002 2.50084C11.7654 2.50084 12.0198 2.6062 12.2073 2.79374C12.3948 2.98128 12.5002 3.23564 12.5002 3.50086V3.58886C12.3398 3.53124 12.1707 3.50148 12.0002 3.50086H11.0002C10.8295 3.50252 10.6603 3.53364 10.5002 3.59286V3.50086C10.5002 3.23564 10.6055 2.98128 10.7931 2.79374C10.9806 2.6062 11.235 2.50084 11.5002 2.50084ZM7.79363 1.29432C7.93348 1.15471 8.11156 1.05966 8.30538 1.02118C8.4992 0.982693 8.70009 1.00249 8.88267 1.07808C9.06525 1.15367 9.22134 1.28166 9.33124 1.44589C9.44114 1.61012 9.49992 1.80323 9.50016 2.00083V2.09284C9.34002 2.03362 9.17087 2.00249 9.00015 2.00083H8.00013C7.82941 2.00249 7.66025 2.03362 7.50012 2.09284V2.00083C7.49982 1.8695 7.5256 1.73941 7.57599 1.61813C7.62637 1.49685 7.70035 1.38678 7.79363 1.29432ZM4.79358 2.79435C4.93343 2.65474 5.11151 2.55969 5.30533 2.5212C5.49916 2.48272 5.70004 2.50252 5.88262 2.57811C6.0652 2.6537 6.22129 2.78168 6.33119 2.94591C6.44109 3.11014 6.49987 3.30325 6.50011 3.50086C6.10228 3.50086 5.72074 3.6589 5.43943 3.94021C5.15812 4.22151 5.00008 4.60305 5.00008 5.00088V12.001H6.0001V10.501H14.0002V20.5011C14.0002 20.6337 13.9476 20.7609 13.8538 20.8547C13.76 20.9485 13.6328 21.0011 13.5002 21.0011H5.13959C4.793 21.0003 4.45732 20.8799 4.18929 20.6601C3.92127 20.4404 3.73733 20.1348 3.66856 19.7951L2.62604 14.583C2.54246 14.1632 2.50025 13.7361 2.50004 13.308V11.001C2.50111 10.8835 2.54404 10.7702 2.62111 10.6815C2.69818 10.5928 2.80435 10.5345 2.92055 10.517C3.26081 11.3036 3.45709 12.145 3.50006 13.001C3.50006 13.1336 3.55274 13.2608 3.64651 13.3546C3.74028 13.4483 3.86746 13.501 4.00007 13.501C6.0166 13.501 9.00015 13.9795 9.00015 15.001V20.5011H10.0002V15.001C10.0002 12.901 6.1001 12.56 4.50007 12.5095V3.50086C4.49977 3.36952 4.52556 3.23944 4.57594 3.11815C4.62633 2.99687 4.7003 2.8868 4.79358 2.79435ZM14.5002 23.0012H4.00257C3.80259 23.0121 3.60255 22.9808 3.41546 22.9094C3.22837 22.8379 3.05843 22.7278 2.9167 22.5863C2.77496 22.4448 2.66461 22.2751 2.59282 22.0881C2.52104 21.9011 2.48942 21.7011 2.50004 21.5012C2.39156 20.1041 2.13512 18.7225 1.73503 17.3796C1.36128 16.1145 1.11505 14.8152 1.00002 13.501V9.75596C0.999853 9.5869 1.05654 9.4227 1.16098 9.28975C1.26541 9.15681 1.41152 9.06285 1.5758 9.02297C1.74009 8.9831 1.91302 8.99963 2.06677 9.06991C2.22053 9.14019 2.34619 9.26013 2.42354 9.41045C2.45054 9.46446 2.48154 9.52946 2.51054 9.58996C2.2164 9.69103 1.96104 9.88122 1.77994 10.1341C1.59885 10.387 1.50101 10.69 1.50003 11.001V13.308C1.50013 13.802 1.54904 14.2947 1.64603 14.779L2.68805 19.9916C2.80257 20.5578 3.10911 21.067 3.55582 21.4331C4.00252 21.7993 4.56198 22 5.13959 22.0012H13.5002C13.8981 22.0012 14.2796 21.8431 14.5609 21.5618C14.8422 21.2805 15.0002 20.899 15.0002 20.5011V6.0009C15.0002 5.60307 14.8422 5.22153 14.5609 4.94022C14.2796 4.65891 13.8981 4.50087 13.5002 4.50087C13.5002 4.23565 13.6056 3.9813 13.7931 3.79376C13.9807 3.60622 14.235 3.50086 14.5002 3.50086C14.7655 3.50086 15.0198 3.60622 15.2074 3.79376C15.3949 3.9813 15.5003 4.23565 15.5003 4.50087V21.5012C15.5003 21.5612 15.4793 23.0012 14.5002 23.0012ZM31.0005 18.5011C30.8855 19.8152 30.6392 21.1146 30.2655 22.3797C29.8654 23.7226 29.609 25.1042 29.5005 26.5012C29.5111 26.701 29.4797 26.9008 29.408 27.0876C29.3364 27.2745 29.2263 27.4441 29.0848 27.5856C28.9434 27.7271 28.7737 27.8372 28.5869 27.9088C28.4001 27.9804 28.2002 28.0119 28.0005 28.0013H17.5003C16.5213 28.0013 16.5003 26.5612 16.5003 26.5012V9.50096C16.5003 9.23574 16.6056 8.98138 16.7932 8.79384C16.9807 8.6063 17.2351 8.50094 17.5003 8.50094C17.7655 8.50094 18.0199 8.6063 18.2074 8.79384C18.3949 8.98138 18.5003 9.23574 18.5003 9.50096C18.1025 9.50096 17.7209 9.65899 17.4396 9.9403C17.1583 10.2216 17.0003 10.6031 17.0003 11.001V25.5012C17.0003 25.899 17.1583 26.2806 17.4396 26.5619C17.7209 26.8432 18.1025 27.0012 18.5003 27.0012H26.8609C27.4383 26.9997 27.9974 26.7989 28.4438 26.4327C28.8902 26.0666 29.1965 25.5576 29.311 24.9917L30.353 19.7786C30.4505 19.2945 30.4999 18.8019 30.5005 18.3081V16.0011C30.4995 15.69 30.4017 15.387 30.2206 15.1342C30.0395 14.8813 29.7841 14.6911 29.49 14.59C29.5195 14.529 29.5505 14.464 29.5775 14.4095C29.655 14.2594 29.7807 14.1397 29.9345 14.0696C30.0883 13.9995 30.2611 13.9832 30.4253 14.0232C30.5894 14.0631 30.7354 14.1571 30.8397 14.29C30.9441 14.423 31.0007 14.5871 31.0005 14.756V18.5011Z" fill="black"/>
<path d="M18.5002 16.0011H19.5003V17.0012H18.5002V16.0011ZM18.5002 18.0012H19.5003V19.0012H18.5002V18.0012ZM18.5002 20.0012H19.5003V21.0012H18.5002V20.0012ZM18.5002 22.0012H19.5003V23.0013H18.5002V22.0012ZM18.5002 24.0013H19.5003V25.0013H18.5002V24.0013ZM23.5003 20.0012H24.5003V21.0012H23.5003V20.0012ZM23.5003 22.0012H24.5003V23.0013H23.5003V22.0012ZM23.5003 24.0013H24.5003V25.0013H23.5003V24.0013ZM25.5004 20.0012H26.5004V21.0012H25.5004V20.0012ZM25.5004 22.0012H26.5004V23.0013H25.5004V22.0012ZM25.5004 24.0013H26.5004V25.0013H25.5004V24.0013ZM20.5003 16.0011H21.5003V17.0012H20.5003V16.0011ZM20.5003 18.0012H21.5003V19.0012H20.5003V18.0012ZM20.5003 20.0012H21.5003V21.0012H20.5003V20.0012ZM20.5003 22.0012H21.5003V23.0013H20.5003V22.0012ZM20.5003 24.0013H21.5003V25.0013H20.5003V24.0013ZM22.5003 16.0011H23.5003V17.0012H22.5003V16.0011ZM24.5003 16.0011H25.5004V17.0012H24.5003V16.0011ZM27.5004 20.0012H28.5004V21.0012H27.5004V20.0012ZM27.5004 22.0012H28.5004V23.0013H27.5004V22.0012ZM20.0003 10.5011H21.0003V11.5011H20.0003V10.5011ZM20.0003 12.5011H21.0003V13.5011H20.0003V12.5011ZM23.0003 10.5011H24.0003V11.5011H23.0003V10.5011ZM23.0003 12.5011H24.0003V13.5011H23.0003V12.5011ZM23.0003 8.50103H24.0003V9.50104H23.0003V8.50103ZM12.5001 11.0011H13.5002V12.0011H12.5001V11.0011ZM12.5001 13.0011H13.5002V14.0011H12.5001V13.0011ZM12.5001 15.0011H13.5002V16.0011H12.5001V15.0011ZM12.5001 17.0012H13.5002V18.0012H12.5001V17.0012ZM12.5001 19.0012H13.5002V20.0012H12.5001V19.0012ZM7.50006 15.0011H8.50008V16.0011H7.50006V15.0011ZM7.50006 17.0012H8.50008V18.0012H7.50006V17.0012ZM7.50006 19.0012H8.50008V20.0012H7.50006V19.0012ZM5.50003 15.0011H6.50005V16.0011H5.50003V15.0011ZM5.50003 17.0012H6.50005V18.0012H5.50003V17.0012ZM5.50003 19.0012H6.50005V20.0012H5.50003V19.0012ZM10.5001 11.0011H11.5001V12.0011H10.5001V11.0011ZM10.5001 13.0011H11.5001V14.0011H10.5001V13.0011ZM10.5001 15.0011H11.5001V16.0011H10.5001V15.0011ZM10.5001 17.0012H11.5001V18.0012H10.5001V17.0012ZM10.5001 19.0012H11.5001V20.0012H10.5001V19.0012ZM8.50008 11.0011H9.5001V12.0011H8.50008V11.0011ZM6.50005 11.0011H7.50006V12.0011H6.50005V11.0011ZM3.5 15.0011H4.50002V16.0011H3.5V15.0011ZM3.5 17.0012H4.50002V18.0012H3.5V17.0012ZM11.0001 5.50098H12.0001V6.50099H11.0001V5.50098ZM11.0001 7.50101H12.0001V8.50103H11.0001V7.50101ZM8.00007 5.50098H9.00009V6.50099H8.00007V5.50098ZM8.00007 7.50101H9.00009V8.50103H8.00007V7.50101ZM8.00007 3.50095H9.00009V4.50096H8.00007V3.50095Z" fill="black"/>
</svg>
