<svg width="18" height="12" viewBox="0 0 18 12" fill="none" xmlns="http://www.w3.org/2000/svg">
<path d="M17.2201 1.71429H0.779896C0.573055 1.71429 0.374685 1.62398 0.228426 1.46323C0.0821675 1.30249 0 1.08447 0 0.857143C0 0.629814 0.0821675 0.411797 0.228426 0.251051C0.374685 0.090306 0.573055 0 0.779896 0H17.2201C17.4269 0 17.6253 0.090306 17.7716 0.251051C17.9178 0.411797 18 0.629814 18 0.857143C18 1.08447 17.9178 1.30249 17.7716 1.46323C17.6253 1.62398 17.4269 1.71429 17.2201 1.71429Z" fill="#25C06D"/>
<path d="M11.4723 6.85714H0.779896C0.573055 6.85714 0.374685 6.76683 0.228426 6.60609C0.0821675 6.44534 0 6.22732 0 6C0 5.77267 0.0821675 5.55465 0.228426 5.3939C0.374685 5.23316 0.573055 5.14285 0.779896 5.14285H11.4723C11.6791 5.14285 11.8775 5.23316 12.0237 5.3939C12.17 5.55465 12.2522 5.77267 12.2522 6C12.2522 6.22732 12.17 6.44534 12.0237 6.60609C11.8775 6.76683 11.6791 6.85714 11.4723 6.85714Z" fill="#25C06D"/>
<path d="M5.67764 12H0.779896C0.573055 12 0.374685 11.9097 0.228426 11.7489C0.0821675 11.5882 0 11.3702 0 11.1428C0 10.9155 0.0821675 10.6975 0.228426 10.5368C0.374685 10.376 0.573055 10.2857 0.779896 10.2857H5.67764C5.88448 10.2857 6.08285 10.376 6.22911 10.5368C6.37537 10.6975 6.45754 10.9155 6.45754 11.1428C6.45754 11.3702 6.37537 11.5882 6.22911 11.7489C6.08285 11.9097 5.88448 12 5.67764 12Z" fill="#25C06D"/>
</svg>
