<svg width="22" height="16" viewBox="0 0 22 16" fill="none" xmlns="http://www.w3.org/2000/svg">
<path d="M5.06299 8.65964C5.06299 8.65964 5.80636 4.75871 7.10727 3.08611C7.92927 2.02823 11.5675 -0.259075 15.0968 0.670144L15.4184 0.721966C15.8133 1.54397 16.73 3.649 16.6979 4.78551C16.6496 6.56532 15.7258 11.8243 15.7258 11.8243C15.7258 11.8243 13.5707 11.0202 12.327 10.4627C8.12048 8.58101 5.06299 8.65964 5.06299 8.65964Z" fill="#C7C7C7"/>
<path d="M16.6371 4.18875C16.5782 3.90998 15.3773 0.722046 15.3773 0.722046C15.3773 0.722046 17.7343 1.33319 19.4855 3.17912C20.32 4.0583 21.2886 5.17515 21.4137 6.42959C21.5995 8.28624 20.8579 12.1836 20.8561 12.189C20.8311 12.3194 19.5374 12.3283 19.4355 12.3301C18.853 12.3426 16.8355 12.2658 15.6757 11.7923C15.6775 11.7923 16.8605 5.26092 16.6371 4.18875Z" fill="#656565"/>
<path d="M8.01343 9.24041C8.01343 9.16179 9.15529 3.99211 10.349 2.87884C11.4605 1.84061 14.2177 0.503967 14.2177 0.503967L15.3936 0.754142C15.3936 0.754142 16.5855 3.20942 16.6748 4.53892C16.7981 6.37055 15.7527 11.8547 15.7527 11.8547" stroke="#656565" stroke-width="0.324844" stroke-miterlimit="10"/>
<path d="M13.9443 0.309244C13.9908 0.0876613 14.4429 -0.0731652 14.9539 0.0340524C15.465 0.14127 15.8421 0.477218 15.7956 0.698801C15.7491 0.920384 15.3096 0.809593 14.7985 0.700588C14.2874 0.591584 13.8979 0.530827 13.9443 0.309244Z" fill="#C7C7C7"/>
<path d="M0.225854 13.1896C0.209772 13.3719 0.220493 13.9062 0.878094 13.5953C1.5357 13.2843 2.89914 12.255 2.89914 12.255C2.89914 12.255 1.57322 11.7601 0.87452 12.1764C0.175819 12.5928 0.241937 13.0074 0.225854 13.1896Z" fill="#656565"/>
<path d="M0.636597 11.9405L5.06468 8.65967C5.06468 8.65967 5.98675 8.48454 8.10251 8.833C10.6722 9.25651 16.9515 12.0996 16.9515 12.0996L13.8387 14.6907C13.8387 14.6907 11.8801 16.2131 9.90019 15.3018C6.94099 13.9383 3.74054 12.1639 2.81311 11.9548C1.0065 11.5438 0.636597 11.9405 0.636597 11.9405Z" fill="#656565"/>
<path d="M10.533 15.8432C9.13376 15.4965 4.38045 12.834 2.83116 12.3586C2.36833 12.2175 1.5785 12.0566 1.0853 12.3175C0.656428 12.5445 0.290101 12.9912 0.406253 13.5041C0.424123 13.5827 0.461649 13.6685 0.538488 13.6899C0.365153 13.7578 0.16144 13.647 0.0720919 13.4844C-0.0172561 13.3218 -0.0118953 13.1234 0.0256309 12.9412C0.10247 12.5695 0.322266 12.1603 0.636771 11.9405C1.05313 11.6492 1.78579 11.4526 3.02236 11.835C5.19173 12.5052 9.5126 15.0641 10.6294 15.2946C12.2717 15.6323 13.5958 14.6388 13.9979 14.4065C14.3999 14.1724 14.3696 14.3582 14.0908 14.5637C13.8138 14.7692 12.3003 16.281 10.533 15.8432Z" fill="#C7C7C7"/>
</svg>
