<svg width="13" height="15" viewBox="0 0 13 15" fill="none" xmlns="http://www.w3.org/2000/svg">
<path d="M11.407 12H1.593C1.31107 12.0001 1.03415 11.9227 0.790558 11.7756C0.546966 11.6285 0.345434 11.417 0.20656 11.1627C0.0676862 10.9085 -0.0035488 10.6206 0.000136034 10.3284C0.00382087 10.0363 0.0822933 9.75041 0.227533 9.5C1.17461 7.86426 1.67493 6.99257 1.67503 5.085V4C1.67503 2.93913 2.0817 1.92172 2.80559 1.17157C3.52947 0.421427 4.51127 0 5.53501 0H7.46499C8.48873 0 9.47053 0.421427 10.1944 1.17157C10.9183 1.92172 11.325 2.93913 11.325 4V5.085C11.325 6.992 11.8248 7.865 12.7725 9.5C12.9177 9.75041 12.9962 10.0363 12.9999 10.3284C13.0035 10.6206 12.9323 10.9085 12.7934 11.1627C12.6546 11.417 12.453 11.6285 12.2094 11.7756C11.9659 11.9227 11.6889 12.0001 11.407 12ZM8.91249 13.5C8.26884 14.5 7.46499 15 6.5 15C5.53501 15 4.73116 14.5 4.08751 13.5" fill="white"/>
</svg>
