<svg width="20" height="11" viewBox="0 0 20 11" fill="none" xmlns="http://www.w3.org/2000/svg">
<path d="M10 6.1875C11.3583 6.1875 12.5583 6.545 13.5333 7.0125C14.4333 7.4525 15 8.4425 15 9.515V11H5V9.52417C5 8.4425 5.56667 7.4525 6.46667 7.02167C7.44167 6.545 8.64167 6.1875 10 6.1875ZM3.33333 6.41667C4.25 6.41667 5 5.59167 5 4.58333C5 3.575 4.25 2.75 3.33333 2.75C2.41667 2.75 1.66667 3.575 1.66667 4.58333C1.66667 5.59167 2.41667 6.41667 3.33333 6.41667ZM4.275 7.425C3.96667 7.37 3.65833 7.33333 3.33333 7.33333C2.50833 7.33333 1.725 7.52583 1.01667 7.865C0.71476 8.00695 0.457436 8.24337 0.276682 8.54488C0.0959273 8.84638 -0.000286405 9.19967 6.40412e-07 9.56083V11H3.75V9.52417C3.75 8.76333 3.94167 8.04833 4.275 7.425ZM16.6667 6.41667C17.5833 6.41667 18.3333 5.59167 18.3333 4.58333C18.3333 3.575 17.5833 2.75 16.6667 2.75C15.75 2.75 15 3.575 15 4.58333C15 5.59167 15.75 6.41667 16.6667 6.41667ZM20 9.56083C20 8.81833 19.6 8.15833 18.9833 7.865C18.2526 7.51427 17.4639 7.33327 16.6667 7.33333C16.3417 7.33333 16.0333 7.37 15.725 7.425C16.0583 8.04833 16.25 8.76333 16.25 9.52417V11H20V9.56083ZM10 0C11.3833 0 12.5 1.22833 12.5 2.75C12.5 4.27167 11.3833 5.5 10 5.5C8.61667 5.5 7.5 4.27167 7.5 2.75C7.5 1.22833 8.61667 0 10 0Z" fill="white"/>
</svg>
