<svg width="18" height="18" viewBox="0 0 18 18" fill="none" xmlns="http://www.w3.org/2000/svg">
<rect width="18" height="18" fill="#E5E5E5"/>
<g clip-path="url(#clip0_204_5286)">
<rect width="360" height="800" transform="translate(-323 -56)" fill="black"/>
<path d="M17 17L12.4584 12.4521M14.4211 7.71053C14.4211 9.49027 13.7141 11.1971 12.4556 12.4556C11.1971 13.7141 9.49027 14.4211 7.71053 14.4211C5.93078 14.4211 4.22394 13.7141 2.96547 12.4556C1.707 11.1971 1 9.49027 1 7.71053C1 5.93078 1.707 4.22394 2.96547 2.96547C4.22394 1.707 5.93078 1 7.71053 1C9.49027 1 11.1971 1.707 12.4556 2.96547C13.7141 4.22394 14.4211 5.93078 14.4211 7.71053Z" stroke="white" stroke-linecap="round"/>
</g>
<defs>
<clipPath id="clip0_204_5286">
<rect width="360" height="800" fill="white" transform="translate(-323 -56)"/>
</clipPath>
</defs>
</svg>
