<svg width="20" height="20" viewBox="0 0 20 20" fill="none" xmlns="http://www.w3.org/2000/svg">
<path d="M13.7484 3.12495C13.7483 2.39185 14.006 1.68205 14.4764 1.11975C14.9468 0.557447 15.5999 0.178447 16.3215 0.049057C17.0431 -0.0803328 17.7872 0.0481275 18.4237 0.411963C19.0601 0.775798 19.5484 1.35184 19.803 2.0393C20.0576 2.72677 20.0624 3.48188 19.8165 4.17252C19.5707 4.86317 19.0898 5.44536 18.458 5.81726C17.8262 6.18915 17.0838 6.32705 16.3606 6.20684C15.6374 6.08662 14.9795 5.71595 14.502 5.15967L6.10573 9.05912C6.29875 9.67084 6.29875 10.3271 6.10573 10.9389L14.502 14.8383C15.0068 14.2513 15.7115 13.8726 16.4795 13.7755C17.2476 13.6785 18.0243 13.87 18.6592 14.313C19.2941 14.756 19.7419 15.4189 19.9159 16.1733C20.0898 16.9276 19.9776 17.7197 19.6008 18.396C19.2241 19.0723 18.6097 19.5847 17.8767 19.8338C17.1437 20.0829 16.3443 20.0511 15.6335 19.7444C14.9227 19.4377 14.351 18.8781 14.0293 18.1739C13.7075 17.4698 13.6587 16.6713 13.8921 15.9332L5.49581 12.0337C5.08016 12.5181 4.52613 12.8636 3.90826 13.0237C3.29038 13.1838 2.63829 13.1508 2.03972 12.9292C1.44114 12.7076 0.924797 12.308 0.560137 11.7841C0.195478 11.2602 0 10.6373 0 9.99899C0 9.36071 0.195478 8.73774 0.560137 8.21388C0.924797 7.69003 1.44114 7.29041 2.03972 7.0688C2.63829 6.84719 3.29038 6.81422 3.90826 6.97431C4.52613 7.1344 5.08016 7.47988 5.49581 7.96428L13.8921 4.06482C13.7966 3.7607 13.7481 3.44374 13.7484 3.12495Z" fill="white"/>
</svg>
