<svg width="10" height="14" viewBox="0 0 10 14" fill="none" xmlns="http://www.w3.org/2000/svg">
<path d="M9.02146 6.06761L5.48919 5.17654L6.07936 1.18259C6.10494 1.06181 6.09854 0.937312 6.06078 0.820739C6.02302 0.704166 5.95513 0.599332 5.86345 0.516048C5.77177 0.432763 5.6593 0.373749 5.53658 0.34453C5.41385 0.31531 5.28488 0.316839 5.16172 0.348974C4.99824 0.392377 4.85358 0.487492 4.75103 0.618998L4.71153 0.674439L0.60422 7.08278C0.542539 7.17935 0.504663 7.28806 0.493589 7.40031C0.482515 7.51256 0.498547 7.62526 0.540417 7.7295C0.582287 7.83375 0.648845 7.92667 0.734825 8.00091C0.820805 8.07516 0.923848 8.12869 1.0358 8.15728L4.56917 9.04955L3.97191 13.0895C3.94684 13.2545 3.98114 13.4217 4.06904 13.563C4.15694 13.7043 4.29308 13.811 4.45451 13.8652C4.61594 13.9194 4.7928 13.9177 4.9553 13.8605C5.1178 13.8032 5.25601 13.6939 5.34664 13.551L9.45358 7.14122C9.51507 7.04464 9.55278 6.93598 9.56372 6.82381C9.57467 6.71164 9.55854 6.59905 9.51663 6.49492C9.47472 6.39079 9.40817 6.29798 9.32223 6.22382C9.23629 6.14966 9.13333 6.09618 9.02146 6.06761Z" fill="#ECECEC"/>
</svg>
